solid OpenSCAD_Model
  facet normal 0 0 -1
    outer loop
      vertex -5 -36.5 0
      vertex -39 -15 0
      vertex -36.5 -5 0
    endloop
  endfacet
  facet normal 0 0 -1
    outer loop
      vertex -39 -15 0
      vertex -20 -39 0
      vertex -39 -17 0
    endloop
  endfacet
  facet normal 0 0 -1
    outer loop
      vertex -39 -17 0
      vertex -20 -39 0
      vertex -39 -39 0
    endloop
  endfacet
  facet normal 0 0 -1
    outer loop
      vertex -5 -36.5 0
      vertex 5 36.5 0
      vertex 5 -36.5 0
    endloop
  endfacet
  facet normal -0 0 -1
    outer loop
      vertex 5 36.5 0
      vertex -5 -36.5 0
      vertex -5 36.5 0
    endloop
  endfacet
  facet normal 0 0 -1
    outer loop
      vertex 17 -39 0
      vertex 39 -20 0
      vertex 39 -39 0
    endloop
  endfacet
  facet normal -0 0 -1
    outer loop
      vertex 39 -20 0
      vertex 17 -39 0
      vertex 39 -18.4472 0
    endloop
  endfacet
  facet normal -0 0 -1
    outer loop
      vertex 39 -18.4472 0
      vertex 17 -39 0
      vertex 39 -13.5528 0
    endloop
  endfacet
  facet normal 0 -0 -1
    outer loop
      vertex 36.5 -5 0
      vertex 39 -13.5528 0
      vertex 17 -39 0
    endloop
  endfacet
  facet normal 0 0 -1
    outer loop
      vertex 37.5 5 0
      vertex 39 -12 0
      vertex 37.5 -5 0
    endloop
  endfacet
  facet normal 0 0 -1
    outer loop
      vertex 39 -12 0
      vertex 37.5 5 0
      vertex 39 15 0
    endloop
  endfacet
  facet normal 0 0 -1
    outer loop
      vertex 36.5 5 0
      vertex 39 15 0
      vertex 37.5 5 0
    endloop
  endfacet
  facet normal 0 0 -1
    outer loop
      vertex 39 -12 0
      vertex 36.5 -5 0
      vertex 37.5 -5 0
    endloop
  endfacet
  facet normal 0 0 -1
    outer loop
      vertex 5 36.5 0
      vertex 36.5 5 0
      vertex 36.5 -5 0
    endloop
  endfacet
  facet normal 0 0 -1
    outer loop
      vertex 39 -13.5528 0
      vertex 36.5 -5 0
      vertex 39 -12 0
    endloop
  endfacet
  facet normal 0 0 -1
    outer loop
      vertex 15 -39 0
      vertex 36.5 -5 0
      vertex 17 -39 0
    endloop
  endfacet
  facet normal 0 0 -1
    outer loop
      vertex 39 17 0
      vertex 18.4472 39 0
      vertex 20 39 0
    endloop
  endfacet
  facet normal 0 0 -1
    outer loop
      vertex 36.5 -5 0
      vertex 15 -39 0
      vertex 5 -36.5 0
    endloop
  endfacet
  facet normal 0 0 -1
    outer loop
      vertex 5 36.5 0
      vertex 36.5 -5 0
      vertex 5 -36.5 0
    endloop
  endfacet
  facet normal 0 0 -1
    outer loop
      vertex 39 17 0
      vertex 13.5528 39 0
      vertex 18.4472 39 0
    endloop
  endfacet
  facet normal 0 0 -1
    outer loop
      vertex 5 -36.5 0
      vertex 15 -39 0
      vertex 5 -37.5 0
    endloop
  endfacet
  facet normal 0 0 -1
    outer loop
      vertex -12 -39 0
      vertex 5 -37.5 0
      vertex 15 -39 0
    endloop
  endfacet
  facet normal 0 0 -1
    outer loop
      vertex -12 -39 0
      vertex -5 -36.5 0
      vertex -5 -37.5 0
    endloop
  endfacet
  facet normal 0 0 -1
    outer loop
      vertex -5 -36.5 0
      vertex -36.5 -5 0
      vertex -5 36.5 0
    endloop
  endfacet
  facet normal 0 0 -1
    outer loop
      vertex -5 -36.5 0
      vertex -12 -39 0
      vertex -13.5528 -39 0
    endloop
  endfacet
  facet normal -0 0 -1
    outer loop
      vertex 5 -37.5 0
      vertex -12 -39 0
      vertex -5 -37.5 0
    endloop
  endfacet
  facet normal 0 0 -1
    outer loop
      vertex 5 36.5 0
      vertex 39 15 0
      vertex 36.5 5 0
    endloop
  endfacet
  facet normal 0 0 -1
    outer loop
      vertex 39 15 0
      vertex 13.5528 39 0
      vertex 39 17 0
    endloop
  endfacet
  facet normal 0 0 -1
    outer loop
      vertex 39 17 0
      vertex 20 39 0
      vertex 39 39 0
    endloop
  endfacet
  facet normal 0 0 -1
    outer loop
      vertex 39 15 0
      vertex 5 36.5 0
      vertex 13.5528 39 0
    endloop
  endfacet
  facet normal -0 0 -1
    outer loop
      vertex 13.5528 39 0
      vertex 5 36.5 0
      vertex 12 39 0
    endloop
  endfacet
  facet normal 0 0 -1
    outer loop
      vertex 5 37.5 0
      vertex 12 39 0
      vertex 5 36.5 0
    endloop
  endfacet
  facet normal 0 0 -1
    outer loop
      vertex -5 37.5 0
      vertex 12 39 0
      vertex 5 37.5 0
    endloop
  endfacet
  facet normal 0 0 -1
    outer loop
      vertex -39 -15 0
      vertex -5 -36.5 0
      vertex -13.5528 -39 0
    endloop
  endfacet
  facet normal 0 0 -1
    outer loop
      vertex -5 37.5 0
      vertex -15 39 0
      vertex 12 39 0
    endloop
  endfacet
  facet normal 0 0 -1
    outer loop
      vertex -36.5 5 0
      vertex -5 36.5 0
      vertex -36.5 -5 0
    endloop
  endfacet
  facet normal 0 0 -1
    outer loop
      vertex -5 36.5 0
      vertex -15 39 0
      vertex -5 37.5 0
    endloop
  endfacet
  facet normal 0 0 -1
    outer loop
      vertex -39 -15 0
      vertex -13.5528 -39 0
      vertex -18.4472 -39 0
    endloop
  endfacet
  facet normal 0 0 -1
    outer loop
      vertex -39 -15 0
      vertex -18.4472 -39 0
      vertex -20 -39 0
    endloop
  endfacet
  facet normal 0 -0 -1
    outer loop
      vertex -15 39 0
      vertex -5 36.5 0
      vertex -36.5 5 0
    endloop
  endfacet
  facet normal -0 0 -1
    outer loop
      vertex -15 39 0
      vertex -36.5 5 0
      vertex -17 39 0
    endloop
  endfacet
  facet normal 0 0 -1
    outer loop
      vertex -39 12 0
      vertex -36.5 5 0
      vertex -37.5 5 0
    endloop
  endfacet
  facet normal -0 0 -1
    outer loop
      vertex -36.5 -5 0
      vertex -39 -15 0
      vertex -37.5 -5 0
    endloop
  endfacet
  facet normal 0 0 -1
    outer loop
      vertex -39 12 0
      vertex -37.5 -5 0
      vertex -39 -15 0
    endloop
  endfacet
  facet normal 0 0 -1
    outer loop
      vertex -37.5 -5 0
      vertex -39 12 0
      vertex -37.5 5 0
    endloop
  endfacet
  facet normal 0 0 -1
    outer loop
      vertex -36.5 5 0
      vertex -39 12 0
      vertex -39 13.5528 0
    endloop
  endfacet
  facet normal 0 0 -1
    outer loop
      vertex -36.5 5 0
      vertex -39 13.5528 0
      vertex -17 39 0
    endloop
  endfacet
  facet normal 0 0 -1
    outer loop
      vertex -39 18.4472 0
      vertex -17 39 0
      vertex -39 13.5528 0
    endloop
  endfacet
  facet normal 0 0 -1
    outer loop
      vertex -39 20 0
      vertex -17 39 0
      vertex -39 18.4472 0
    endloop
  endfacet
  facet normal -0 0 -1
    outer loop
      vertex -17 39 0
      vertex -39 20 0
      vertex -39 39 0
    endloop
  endfacet
  facet normal 0 -1 0
    outer loop
      vertex -12 -39 0
      vertex 15 -39 10
      vertex -12 -39 10
    endloop
  endfacet
  facet normal 0 -1 -0
    outer loop
      vertex 15 -39 10
      vertex -12 -39 0
      vertex 15 -39 0
    endloop
  endfacet
  facet normal 0 -1 0
    outer loop
      vertex -18.4472 -39 0
      vertex -13.5528 -39 10
      vertex -18.4472 -39 10
    endloop
  endfacet
  facet normal 0 -1 -0
    outer loop
      vertex -13.5528 -39 10
      vertex -18.4472 -39 0
      vertex -13.5528 -39 0
    endloop
  endfacet
  facet normal 0 -1 0
    outer loop
      vertex -18.4472 -39 10
      vertex -39 -39 20
      vertex -20 -39 10
    endloop
  endfacet
  facet normal 0 -1 0
    outer loop
      vertex -39 -39 0
      vertex -20 -39 10
      vertex -39 -39 20
    endloop
  endfacet
  facet normal 0 -1 -0
    outer loop
      vertex -20 -39 10
      vertex -39 -39 0
      vertex -20 -39 0
    endloop
  endfacet
  facet normal 0 -1 0
    outer loop
      vertex -13.5528 -39 10
      vertex -39 -39 20
      vertex -18.4472 -39 10
    endloop
  endfacet
  facet normal 0 -1 0
    outer loop
      vertex -12 -39 10
      vertex -39 -39 20
      vertex -13.5528 -39 10
    endloop
  endfacet
  facet normal 0 -1 0
    outer loop
      vertex -39 -39 20
      vertex -12 -39 10
      vertex 39 -39 20
    endloop
  endfacet
  facet normal 0 -1 0
    outer loop
      vertex 15 -39 10
      vertex 39 -39 20
      vertex -12 -39 10
    endloop
  endfacet
  facet normal 0 -1 0
    outer loop
      vertex 17 -39 10
      vertex 39 -39 20
      vertex 15 -39 10
    endloop
  endfacet
  facet normal 0 -1 0
    outer loop
      vertex 39 -39 0
      vertex 17 -39 10
      vertex 17 -39 0
    endloop
  endfacet
  facet normal 0 -1 0
    outer loop
      vertex 17 -39 10
      vertex 39 -39 0
      vertex 39 -39 20
    endloop
  endfacet
  facet normal 1 0 0
    outer loop
      vertex 39 39 20
      vertex 39 17 10
      vertex 39 39 0
    endloop
  endfacet
  facet normal 1 0 0
    outer loop
      vertex 39 39 20
      vertex 39 15 10
      vertex 39 17 10
    endloop
  endfacet
  facet normal 1 0 0
    outer loop
      vertex 39 15 10
      vertex 39 -12 10
      vertex 39 15 0
    endloop
  endfacet
  facet normal 1 0 0
    outer loop
      vertex 39 39 20
      vertex 39 -12 10
      vertex 39 15 10
    endloop
  endfacet
  facet normal 1 -0 0
    outer loop
      vertex 39 -39 20
      vertex 39 -12 10
      vertex 39 39 20
    endloop
  endfacet
  facet normal 1 0 0
    outer loop
      vertex 39 -13.5528 10
      vertex 39 -18.4472 10
      vertex 39 -13.5528 0
    endloop
  endfacet
  facet normal 1 0 0
    outer loop
      vertex 39 -12 10
      vertex 39 -39 20
      vertex 39 -13.5528 10
    endloop
  endfacet
  facet normal 1 0 0
    outer loop
      vertex 39 -13.5528 10
      vertex 39 -39 20
      vertex 39 -18.4472 10
    endloop
  endfacet
  facet normal 1 0 0
    outer loop
      vertex 39 -18.4472 10
      vertex 39 -39 20
      vertex 39 -20 10
    endloop
  endfacet
  facet normal 1 0 0
    outer loop
      vertex 39 -39 0
      vertex 39 -20 10
      vertex 39 -39 20
    endloop
  endfacet
  facet normal 1 0 0
    outer loop
      vertex 39 -20 10
      vertex 39 -39 0
      vertex 39 -20 0
    endloop
  endfacet
  facet normal 1 0 0
    outer loop
      vertex 39 39 0
      vertex 39 17 10
      vertex 39 17 0
    endloop
  endfacet
  facet normal 1 0 0
    outer loop
      vertex 39 15 0
      vertex 39 -12 10
      vertex 39 -12 0
    endloop
  endfacet
  facet normal 1 0 0
    outer loop
      vertex 39 -13.5528 0
      vertex 39 -18.4472 10
      vertex 39 -18.4472 0
    endloop
  endfacet
  facet normal -0 0 1
    outer loop
      vertex -36.5 5 20
      vertex -36 0.300003 20
      vertex -36 5.5 20
    endloop
  endfacet
  facet normal 0 0 1
    outer loop
      vertex -36 0.300003 20
      vertex -36.5 5 20
      vertex -36 -0.300003 20
    endloop
  endfacet
  facet normal 0 0 1
    outer loop
      vertex -36.5 -5 20
      vertex -36 -0.300003 20
      vertex -36.5 5 20
    endloop
  endfacet
  facet normal 0 0 1
    outer loop
      vertex -36 5.5 20
      vertex -37.5 5 20
      vertex -36.5 5 20
    endloop
  endfacet
  facet normal 0 0 1
    outer loop
      vertex -37.5 5 20
      vertex -38 5.5 20
      vertex -37.5 -5 20
    endloop
  endfacet
  facet normal -0 0 1
    outer loop
      vertex -38 5.5 20
      vertex -37.5 5 20
      vertex -36 5.5 20
    endloop
  endfacet
  facet normal 0 0 1
    outer loop
      vertex -36 -0.300003 20
      vertex -36.5 -5 20
      vertex -36 -5.5 20
    endloop
  endfacet
  facet normal -0 0 1
    outer loop
      vertex -37.5 -5 20
      vertex -36 -5.5 20
      vertex -36.5 -5 20
    endloop
  endfacet
  facet normal 0 0 1
    outer loop
      vertex -37.5 -5 20
      vertex -38 -5.5 20
      vertex -36 -5.5 20
    endloop
  endfacet
  facet normal 0 0 1
    outer loop
      vertex -38 -5.5 20
      vertex -37.5 -5 20
      vertex -38 5.5 20
    endloop
  endfacet
  facet normal -0 0 1
    outer loop
      vertex -36 0.300003 20
      vertex -0.299957 -0.300003 20
      vertex -0.299957 0.300003 20
    endloop
  endfacet
  facet normal 0 0 1
    outer loop
      vertex -0.299957 -0.300003 20
      vertex -36 0.300003 20
      vertex -36 -0.300003 20
    endloop
  endfacet
  facet normal 0 0 1
    outer loop
      vertex 5.5 -36 20
      vertex 5 -36.5 20
      vertex 5.5 -38 20
    endloop
  endfacet
  facet normal -0 0 1
    outer loop
      vertex 0.300049 -36 20
      vertex 5 -36.5 20
      vertex 5.5 -36 20
    endloop
  endfacet
  facet normal 0 0 1
    outer loop
      vertex -0.299957 -0.300003 20
      vertex 0.300049 -0.300003 20
      vertex -0.299957 0.300003 20
    endloop
  endfacet
  facet normal 0 0 1
    outer loop
      vertex 0.300049 -0.300003 20
      vertex -0.299957 -0.300003 20
      vertex 0.300049 -36 20
    endloop
  endfacet
  facet normal 0 0 1
    outer loop
      vertex -0.299957 -36 20
      vertex 0.300049 -36 20
      vertex -0.299957 -0.300003 20
    endloop
  endfacet
  facet normal -0 0 1
    outer loop
      vertex -0.299957 -36 20
      vertex 5 -36.5 20
      vertex 0.300049 -36 20
    endloop
  endfacet
  facet normal 0 0 1
    outer loop
      vertex -0.299957 -36 20
      vertex -5 -36.5 20
      vertex 5 -36.5 20
    endloop
  endfacet
  facet normal 0 0 1
    outer loop
      vertex -5 -36.5 20
      vertex -5.5 -36 20
      vertex -5 -37.5 20
    endloop
  endfacet
  facet normal -0 0 1
    outer loop
      vertex -5.5 -36 20
      vertex -5 -36.5 20
      vertex -0.299957 -36 20
    endloop
  endfacet
  facet normal -0 0 1
    outer loop
      vertex 0.300049 0.300003 20
      vertex 36 -0.300003 20
      vertex 36 0.300003 20
    endloop
  endfacet
  facet normal 0 0 1
    outer loop
      vertex 36 -0.300003 20
      vertex 0.300049 0.300003 20
      vertex 0.300049 -0.300003 20
    endloop
  endfacet
  facet normal -0 0 1
    outer loop
      vertex 5 36.5 20
      vertex 5.5 36 20
      vertex 5 37.5 20
    endloop
  endfacet
  facet normal 0 0 1
    outer loop
      vertex 5 36.5 20
      vertex 0.300049 36 20
      vertex 5.5 36 20
    endloop
  endfacet
  facet normal -0 0 1
    outer loop
      vertex -0.299957 36 20
      vertex 0.300049 0.300003 20
      vertex 0.300049 36 20
    endloop
  endfacet
  facet normal 0 0 1
    outer loop
      vertex -0.299957 0.300003 20
      vertex 0.300049 0.300003 20
      vertex -0.299957 36 20
    endloop
  endfacet
  facet normal 0 0 1
    outer loop
      vertex 0.300049 0.300003 20
      vertex -0.299957 0.300003 20
      vertex 0.300049 -0.300003 20
    endloop
  endfacet
  facet normal 0 0 1
    outer loop
      vertex 5 36.5 20
      vertex -0.299957 36 20
      vertex 0.300049 36 20
    endloop
  endfacet
  facet normal -0 0 1
    outer loop
      vertex -5 36.5 20
      vertex -0.299957 36 20
      vertex 5 36.5 20
    endloop
  endfacet
  facet normal 0 0 1
    outer loop
      vertex -5 36.5 20
      vertex -5.5 36 20
      vertex -0.299957 36 20
    endloop
  endfacet
  facet normal 0 0 1
    outer loop
      vertex -5.5 36 20
      vertex -5 36.5 20
      vertex -5.5 38 20
    endloop
  endfacet
  facet normal 0 0 1
    outer loop
      vertex 38 5.5 20
      vertex 37.5 5 20
      vertex 38 -5.5 20
    endloop
  endfacet
  facet normal 0 0 1
    outer loop
      vertex 38 5.5 20
      vertex 36.5 5 20
      vertex 37.5 5 20
    endloop
  endfacet
  facet normal 0 0 1
    outer loop
      vertex 36 0.300003 20
      vertex 36.5 5 20
      vertex 36 5.5 20
    endloop
  endfacet
  facet normal -0 0 1
    outer loop
      vertex 36 5.5 20
      vertex 36.5 5 20
      vertex 38 5.5 20
    endloop
  endfacet
  facet normal 0 0 1
    outer loop
      vertex 38 5.5 20
      vertex 39 39 20
      vertex 38 36 20
    endloop
  endfacet
  facet normal 0 0 1
    outer loop
      vertex 39 39 20
      vertex 36 38 20
      vertex 38 36 20
    endloop
  endfacet
  facet normal 0 0 1
    outer loop
      vertex 39 39 20
      vertex 5.5 38 20
      vertex 36 38 20
    endloop
  endfacet
  facet normal 0 0 1
    outer loop
      vertex 5.5 38 20
      vertex 5 37.5 20
      vertex 5.5 36 20
    endloop
  endfacet
  facet normal 0 0 1
    outer loop
      vertex 5.5 38 20
      vertex -5 37.5 20
      vertex 5 37.5 20
    endloop
  endfacet
  facet normal 0 0 1
    outer loop
      vertex -5 37.5 20
      vertex -5.5 38 20
      vertex -5 36.5 20
    endloop
  endfacet
  facet normal 0 0 1
    outer loop
      vertex 5.5 38 20
      vertex -5.5 38 20
      vertex -5 37.5 20
    endloop
  endfacet
  facet normal 0 0 1
    outer loop
      vertex 39 39 20
      vertex -5.5 38 20
      vertex 5.5 38 20
    endloop
  endfacet
  facet normal -0 0 1
    outer loop
      vertex -39 39 20
      vertex -5.5 38 20
      vertex 39 39 20
    endloop
  endfacet
  facet normal 0 0 1
    outer loop
      vertex -39 39 20
      vertex -38 5.5 20
      vertex -38 36 20
    endloop
  endfacet
  facet normal 0 0 1
    outer loop
      vertex -38 5.5 20
      vertex -39 39 20
      vertex -38 -5.5 20
    endloop
  endfacet
  facet normal 0 0 1
    outer loop
      vertex -39 -39 20
      vertex -38 -5.5 20
      vertex -39 39 20
    endloop
  endfacet
  facet normal 0 0 1
    outer loop
      vertex -36 38 20
      vertex -39 39 20
      vertex -38 36 20
    endloop
  endfacet
  facet normal 0 0 1
    outer loop
      vertex -5.5 38 20
      vertex -39 39 20
      vertex -36 38 20
    endloop
  endfacet
  facet normal 0 0 1
    outer loop
      vertex 39 39 20
      vertex 38 5.5 20
      vertex 39 -39 20
    endloop
  endfacet
  facet normal -0 0 1
    outer loop
      vertex 38 -5.5 20
      vertex 39 -39 20
      vertex 38 5.5 20
    endloop
  endfacet
  facet normal -0 0 1
    outer loop
      vertex 38 -36 20
      vertex 39 -39 20
      vertex 38 -5.5 20
    endloop
  endfacet
  facet normal -0 0 1
    outer loop
      vertex 36 -38 20
      vertex 39 -39 20
      vertex 38 -36 20
    endloop
  endfacet
  facet normal -0 0 1
    outer loop
      vertex 5.5 -38 20
      vertex 39 -39 20
      vertex 36 -38 20
    endloop
  endfacet
  facet normal -0 0 1
    outer loop
      vertex 5 -37.5 20
      vertex 5.5 -38 20
      vertex 5 -36.5 20
    endloop
  endfacet
  facet normal -0 0 1
    outer loop
      vertex -5 -37.5 20
      vertex 5.5 -38 20
      vertex 5 -37.5 20
    endloop
  endfacet
  facet normal 0 0 1
    outer loop
      vertex -5.5 -38 20
      vertex -5 -37.5 20
      vertex -5.5 -36 20
    endloop
  endfacet
  facet normal 0 0 1
    outer loop
      vertex -5.5 -38 20
      vertex 5.5 -38 20
      vertex -5 -37.5 20
    endloop
  endfacet
  facet normal -0 0 1
    outer loop
      vertex -5.5 -38 20
      vertex 39 -39 20
      vertex 5.5 -38 20
    endloop
  endfacet
  facet normal 0 0 1
    outer loop
      vertex -39 -39 20
      vertex -5.5 -38 20
      vertex -36 -38 20
    endloop
  endfacet
  facet normal 0 0 1
    outer loop
      vertex -5.5 -38 20
      vertex -39 -39 20
      vertex 39 -39 20
    endloop
  endfacet
  facet normal 0 0 1
    outer loop
      vertex -38 -36 20
      vertex -39 -39 20
      vertex -36 -38 20
    endloop
  endfacet
  facet normal 0 0 1
    outer loop
      vertex -38 -5.5 20
      vertex -39 -39 20
      vertex -38 -36 20
    endloop
  endfacet
  facet normal -0 0 1
    outer loop
      vertex 37.5 -5 20
      vertex 38 -5.5 20
      vertex 37.5 5 20
    endloop
  endfacet
  facet normal -0 0 1
    outer loop
      vertex 36.5 -5 20
      vertex 38 -5.5 20
      vertex 37.5 -5 20
    endloop
  endfacet
  facet normal 0 0 1
    outer loop
      vertex 36.5 5 20
      vertex 36 0.300003 20
      vertex 36.5 -5 20
    endloop
  endfacet
  facet normal -0 0 1
    outer loop
      vertex 36 -0.300003 20
      vertex 36.5 -5 20
      vertex 36 0.300003 20
    endloop
  endfacet
  facet normal 0 0 1
    outer loop
      vertex 36.5 -5 20
      vertex 36 -5.5 20
      vertex 38 -5.5 20
    endloop
  endfacet
  facet normal 0 0 1
    outer loop
      vertex 36 -5.5 20
      vertex 36.5 -5 20
      vertex 36 -0.300003 20
    endloop
  endfacet
  facet normal -0.707107 0.707107 0
    outer loop
      vertex 36 -38 1
      vertex 38 -36 20
      vertex 38 -36 1
    endloop
  endfacet
  facet normal -0.707107 0.707107 0
    outer loop
      vertex 38 -36 20
      vertex 36 -38 1
      vertex 36 -38 20
    endloop
  endfacet
  facet normal 0 1 -0
    outer loop
      vertex 12 39 0
      vertex -15 39 10
      vertex 12 39 10
    endloop
  endfacet
  facet normal 0 1 0
    outer loop
      vertex -15 39 10
      vertex 12 39 0
      vertex -15 39 0
    endloop
  endfacet
  facet normal 0 1 -0
    outer loop
      vertex 18.4472 39 0
      vertex 13.5528 39 10
      vertex 18.4472 39 10
    endloop
  endfacet
  facet normal 0 1 0
    outer loop
      vertex 13.5528 39 10
      vertex 18.4472 39 0
      vertex 13.5528 39 0
    endloop
  endfacet
  facet normal 0 1 0
    outer loop
      vertex 18.4472 39 10
      vertex 39 39 20
      vertex 20 39 10
    endloop
  endfacet
  facet normal 0 1 -0
    outer loop
      vertex 39 39 0
      vertex 20 39 10
      vertex 39 39 20
    endloop
  endfacet
  facet normal 0 1 0
    outer loop
      vertex 20 39 10
      vertex 39 39 0
      vertex 20 39 0
    endloop
  endfacet
  facet normal 0 1 0
    outer loop
      vertex 13.5528 39 10
      vertex 39 39 20
      vertex 18.4472 39 10
    endloop
  endfacet
  facet normal 0 1 0
    outer loop
      vertex 12 39 10
      vertex 39 39 20
      vertex 13.5528 39 10
    endloop
  endfacet
  facet normal 0 1 0
    outer loop
      vertex 39 39 20
      vertex 12 39 10
      vertex -39 39 20
    endloop
  endfacet
  facet normal 0 1 -0
    outer loop
      vertex -15 39 10
      vertex -39 39 20
      vertex 12 39 10
    endloop
  endfacet
  facet normal 0 1 -0
    outer loop
      vertex -17 39 10
      vertex -39 39 20
      vertex -15 39 10
    endloop
  endfacet
  facet normal 0 1 0
    outer loop
      vertex -39 39 0
      vertex -17 39 10
      vertex -17 39 0
    endloop
  endfacet
  facet normal 0 1 0
    outer loop
      vertex -17 39 10
      vertex -39 39 0
      vertex -39 39 20
    endloop
  endfacet
  facet normal -0.707107 -0.707107 0
    outer loop
      vertex 38 36 1
      vertex 36 38 20
      vertex 36 38 1
    endloop
  endfacet
  facet normal -0.707107 -0.707107 0
    outer loop
      vertex 36 38 20
      vertex 38 36 1
      vertex 38 36 20
    endloop
  endfacet
  facet normal -1 0 0
    outer loop
      vertex -39 -17 0
      vertex -39 -39 0
      vertex -39 -17 10
    endloop
  endfacet
  facet normal -1 0 0
    outer loop
      vertex -39 12 0
      vertex -39 -15 0
      vertex -39 12 10
    endloop
  endfacet
  facet normal -1 0 0
    outer loop
      vertex -39 18.4472 0
      vertex -39 13.5528 0
      vertex -39 18.4472 10
    endloop
  endfacet
  facet normal -1 0 0
    outer loop
      vertex -39 20 10
      vertex -39 39 0
      vertex -39 20 0
    endloop
  endfacet
  facet normal -1 0 0
    outer loop
      vertex -39 39 0
      vertex -39 20 10
      vertex -39 39 20
    endloop
  endfacet
  facet normal -1 0 0
    outer loop
      vertex -39 18.4472 10
      vertex -39 39 20
      vertex -39 20 10
    endloop
  endfacet
  facet normal -1 0 0
    outer loop
      vertex -39 13.5528 10
      vertex -39 18.4472 10
      vertex -39 13.5528 0
    endloop
  endfacet
  facet normal -1 0 0
    outer loop
      vertex -39 13.5528 10
      vertex -39 39 20
      vertex -39 18.4472 10
    endloop
  endfacet
  facet normal -1 0 0
    outer loop
      vertex -39 12 10
      vertex -39 39 20
      vertex -39 13.5528 10
    endloop
  endfacet
  facet normal -1 0 0
    outer loop
      vertex -39 -15 10
      vertex -39 12 10
      vertex -39 -15 0
    endloop
  endfacet
  facet normal -1 0 0
    outer loop
      vertex -39 -39 20
      vertex -39 12 10
      vertex -39 -15 10
    endloop
  endfacet
  facet normal -1 0 0
    outer loop
      vertex -39 -39 20
      vertex -39 -15 10
      vertex -39 -17 10
    endloop
  endfacet
  facet normal -1 0 0
    outer loop
      vertex -39 12 10
      vertex -39 -39 20
      vertex -39 39 20
    endloop
  endfacet
  facet normal -1 0 0
    outer loop
      vertex -39 -39 20
      vertex -39 -17 10
      vertex -39 -39 0
    endloop
  endfacet
  facet normal 0.707107 -0.707107 0
    outer loop
      vertex -38 36 20
      vertex -36 38 1
      vertex -36 38 20
    endloop
  endfacet
  facet normal 0.707107 -0.707107 0
    outer loop
      vertex -36 38 1
      vertex -38 36 20
      vertex -38 36 1
    endloop
  endfacet
  facet normal 0.707107 0.707107 0
    outer loop
      vertex -36 -38 20
      vertex -38 -36 1
      vertex -38 -36 20
    endloop
  endfacet
  facet normal 0.707107 0.707107 0
    outer loop
      vertex -38 -36 1
      vertex -36 -38 20
      vertex -36 -38 1
    endloop
  endfacet
  facet normal 1 -0 0
    outer loop
      vertex 41 -14.5528 9
      vertex 41 -12 3
      vertex 41 -12 9
    endloop
  endfacet
  facet normal 1 0 0
    outer loop
      vertex 41 -12 3
      vertex 41 -14.5528 9
      vertex 41 -14.5528 3
    endloop
  endfacet
  facet normal 1 -0 0
    outer loop
      vertex 41 -20 9
      vertex 41 -17.4472 3
      vertex 41 -17.4472 9
    endloop
  endfacet
  facet normal 1 0 0
    outer loop
      vertex 41 -17.4472 3
      vertex 41 -20 9
      vertex 41 -20 3
    endloop
  endfacet
  facet normal 1 -0 0
    outer loop
      vertex 41 14 9
      vertex 41 18 3
      vertex 41 18 9
    endloop
  endfacet
  facet normal 1 0 0
    outer loop
      vertex 41 18 3
      vertex 41 14 9
      vertex 41 14 3
    endloop
  endfacet
  facet normal -0.447214 0.894427 0
    outer loop
      vertex 41 18 3
      vertex 39 17 10
      vertex 41 18 9
    endloop
  endfacet
  facet normal -0.447214 0.894427 0
    outer loop
      vertex 39 17 10
      vertex 41 18 3
      vertex 39 17 0
    endloop
  endfacet
  facet normal -0.447214 -0.894427 0
    outer loop
      vertex 39 15 10
      vertex 41 14 3
      vertex 41 14 9
    endloop
  endfacet
  facet normal -0.447214 -0.894427 0
    outer loop
      vertex 41 14 3
      vertex 39 15 10
      vertex 39 15 0
    endloop
  endfacet
  facet normal 0 1 -0
    outer loop
      vertex 41 -12 3
      vertex 39 -12 10
      vertex 41 -12 9
    endloop
  endfacet
  facet normal 0 1 0
    outer loop
      vertex 39 -12 10
      vertex 41 -12 3
      vertex 39 -12 0
    endloop
  endfacet
  facet normal -0.447214 -0.894427 0
    outer loop
      vertex 39 -13.5528 10
      vertex 41 -14.5528 3
      vertex 41 -14.5528 9
    endloop
  endfacet
  facet normal -0.447214 -0.894427 0
    outer loop
      vertex 41 -14.5528 3
      vertex 39 -13.5528 10
      vertex 39 -13.5528 0
    endloop
  endfacet
  facet normal -0.447214 0.894427 0
    outer loop
      vertex 41 -17.4472 3
      vertex 39 -18.4472 10
      vertex 41 -17.4472 9
    endloop
  endfacet
  facet normal -0.447214 0.894427 0
    outer loop
      vertex 39 -18.4472 10
      vertex 41 -17.4472 3
      vertex 39 -18.4472 0
    endloop
  endfacet
  facet normal 0 -1 0
    outer loop
      vertex 39 -20 10
      vertex 41 -20 3
      vertex 41 -20 9
    endloop
  endfacet
  facet normal -0 -1 0
    outer loop
      vertex 41 -20 3
      vertex 39 -20 10
      vertex 39 -20 0
    endloop
  endfacet
  facet normal 0.83205 0 -0.5547
    outer loop
      vertex 41 -12 3
      vertex 39 -13.5528 0
      vertex 39 -12 0
    endloop
  endfacet
  facet normal 0.83205 0 -0.5547
    outer loop
      vertex 39 -13.5528 0
      vertex 41 -12 3
      vertex 41 -14.5528 3
    endloop
  endfacet
  facet normal 0.83205 0 -0.5547
    outer loop
      vertex 41 -20 3
      vertex 39 -18.4472 0
      vertex 41 -17.4472 3
    endloop
  endfacet
  facet normal 0.83205 0 -0.5547
    outer loop
      vertex 39 -18.4472 0
      vertex 41 -20 3
      vertex 39 -20 0
    endloop
  endfacet
  facet normal 0.83205 0 -0.5547
    outer loop
      vertex 41 18 3
      vertex 39 15 0
      vertex 39 17 0
    endloop
  endfacet
  facet normal 0.83205 0 -0.5547
    outer loop
      vertex 39 15 0
      vertex 41 18 3
      vertex 41 14 3
    endloop
  endfacet
  facet normal 0.447214 -0 0.894427
    outer loop
      vertex 39 -13.5528 10
      vertex 41 -12 9
      vertex 39 -12 10
    endloop
  endfacet
  facet normal 0.447214 0 0.894427
    outer loop
      vertex 41 -12 9
      vertex 39 -13.5528 10
      vertex 41 -14.5528 9
    endloop
  endfacet
  facet normal 0.447214 0 0.894427
    outer loop
      vertex 39 -18.4472 10
      vertex 41 -20 9
      vertex 41 -17.4472 9
    endloop
  endfacet
  facet normal 0.447214 0 0.894427
    outer loop
      vertex 41 -20 9
      vertex 39 -18.4472 10
      vertex 39 -20 10
    endloop
  endfacet
  facet normal 0.447214 0 0.894427
    outer loop
      vertex 39 17 10
      vertex 41 14 9
      vertex 41 18 9
    endloop
  endfacet
  facet normal 0.447214 0 0.894427
    outer loop
      vertex 41 14 9
      vertex 39 17 10
      vertex 39 15 10
    endloop
  endfacet
  facet normal 0 1 -0
    outer loop
      vertex 14.5528 41 3
      vertex 12 41 9
      vertex 14.5528 41 9
    endloop
  endfacet
  facet normal 0 1 0
    outer loop
      vertex 12 41 9
      vertex 14.5528 41 3
      vertex 12 41 3
    endloop
  endfacet
  facet normal 0 1 -0
    outer loop
      vertex 20 41 3
      vertex 17.4472 41 9
      vertex 20 41 9
    endloop
  endfacet
  facet normal 0 1 0
    outer loop
      vertex 17.4472 41 9
      vertex 20 41 3
      vertex 17.4472 41 3
    endloop
  endfacet
  facet normal 0 1 -0
    outer loop
      vertex -14 41 3
      vertex -18 41 9
      vertex -14 41 9
    endloop
  endfacet
  facet normal 0 1 0
    outer loop
      vertex -18 41 9
      vertex -14 41 3
      vertex -18 41 3
    endloop
  endfacet
  facet normal -0.894427 -0.447214 -0
    outer loop
      vertex -17 39 10
      vertex -18 41 3
      vertex -17 39 0
    endloop
  endfacet
  facet normal -0.894427 -0.447214 0
    outer loop
      vertex -18 41 3
      vertex -17 39 10
      vertex -18 41 9
    endloop
  endfacet
  facet normal 0.894427 -0.447214 0
    outer loop
      vertex -15 39 10
      vertex -14 41 3
      vertex -14 41 9
    endloop
  endfacet
  facet normal 0.894427 -0.447214 0
    outer loop
      vertex -14 41 3
      vertex -15 39 10
      vertex -15 39 0
    endloop
  endfacet
  facet normal -1 0 0
    outer loop
      vertex 12 39 10
      vertex 12 41 3
      vertex 12 39 0
    endloop
  endfacet
  facet normal -1 0 0
    outer loop
      vertex 12 41 3
      vertex 12 39 10
      vertex 12 41 9
    endloop
  endfacet
  facet normal 0.894427 -0.447214 0
    outer loop
      vertex 13.5528 39 10
      vertex 14.5528 41 3
      vertex 14.5528 41 9
    endloop
  endfacet
  facet normal 0.894427 -0.447214 0
    outer loop
      vertex 14.5528 41 3
      vertex 13.5528 39 10
      vertex 13.5528 39 0
    endloop
  endfacet
  facet normal -0.894427 -0.447214 -0
    outer loop
      vertex 18.4472 39 10
      vertex 17.4472 41 3
      vertex 18.4472 39 0
    endloop
  endfacet
  facet normal -0.894427 -0.447214 0
    outer loop
      vertex 17.4472 41 3
      vertex 18.4472 39 10
      vertex 17.4472 41 9
    endloop
  endfacet
  facet normal 1 0 0
    outer loop
      vertex 20 39 10
      vertex 20 41 3
      vertex 20 41 9
    endloop
  endfacet
  facet normal 1 0 0
    outer loop
      vertex 20 41 3
      vertex 20 39 10
      vertex 20 39 0
    endloop
  endfacet
  facet normal 0 0.83205 -0.5547
    outer loop
      vertex 13.5528 39 0
      vertex 12 41 3
      vertex 14.5528 41 3
    endloop
  endfacet
  facet normal 0 0.83205 -0.5547
    outer loop
      vertex 12 41 3
      vertex 13.5528 39 0
      vertex 12 39 0
    endloop
  endfacet
  facet normal 0 0.83205 -0.5547
    outer loop
      vertex 18.4472 39 0
      vertex 20 41 3
      vertex 20 39 0
    endloop
  endfacet
  facet normal 0 0.83205 -0.5547
    outer loop
      vertex 20 41 3
      vertex 18.4472 39 0
      vertex 17.4472 41 3
    endloop
  endfacet
  facet normal 0 0.83205 -0.5547
    outer loop
      vertex -15 39 0
      vertex -18 41 3
      vertex -14 41 3
    endloop
  endfacet
  facet normal 0 0.83205 -0.5547
    outer loop
      vertex -18 41 3
      vertex -15 39 0
      vertex -17 39 0
    endloop
  endfacet
  facet normal -0 0.447214 0.894427
    outer loop
      vertex 12 41 9
      vertex 13.5528 39 10
      vertex 14.5528 41 9
    endloop
  endfacet
  facet normal 0 0.447214 0.894427
    outer loop
      vertex 13.5528 39 10
      vertex 12 41 9
      vertex 12 39 10
    endloop
  endfacet
  facet normal 0 0.447214 0.894427
    outer loop
      vertex 20 41 9
      vertex 18.4472 39 10
      vertex 20 39 10
    endloop
  endfacet
  facet normal 0 0.447214 0.894427
    outer loop
      vertex 18.4472 39 10
      vertex 20 41 9
      vertex 17.4472 41 9
    endloop
  endfacet
  facet normal 0 0.447214 0.894427
    outer loop
      vertex -14 41 9
      vertex -17 39 10
      vertex -15 39 10
    endloop
  endfacet
  facet normal 0 0.447214 0.894427
    outer loop
      vertex -17 39 10
      vertex -14 41 9
      vertex -18 41 9
    endloop
  endfacet
  facet normal -1 0 0
    outer loop
      vertex -41 12 3
      vertex -41 14.5528 9
      vertex -41 14.5528 3
    endloop
  endfacet
  facet normal -1 -0 0
    outer loop
      vertex -41 14.5528 9
      vertex -41 12 3
      vertex -41 12 9
    endloop
  endfacet
  facet normal -1 0 0
    outer loop
      vertex -41 17.4472 3
      vertex -41 20 9
      vertex -41 20 3
    endloop
  endfacet
  facet normal -1 -0 0
    outer loop
      vertex -41 20 9
      vertex -41 17.4472 3
      vertex -41 17.4472 9
    endloop
  endfacet
  facet normal -1 0 0
    outer loop
      vertex -41 -18 3
      vertex -41 -14 9
      vertex -41 -14 3
    endloop
  endfacet
  facet normal -1 -0 0
    outer loop
      vertex -41 -14 9
      vertex -41 -18 3
      vertex -41 -18 9
    endloop
  endfacet
  facet normal 0.447214 -0.894427 0
    outer loop
      vertex -41 -18 3
      vertex -39 -17 10
      vertex -41 -18 9
    endloop
  endfacet
  facet normal 0.447214 -0.894427 0
    outer loop
      vertex -39 -17 10
      vertex -41 -18 3
      vertex -39 -17 0
    endloop
  endfacet
  facet normal 0.447214 0.894427 0
    outer loop
      vertex -39 -15 10
      vertex -41 -14 3
      vertex -41 -14 9
    endloop
  endfacet
  facet normal 0.447214 0.894427 0
    outer loop
      vertex -41 -14 3
      vertex -39 -15 10
      vertex -39 -15 0
    endloop
  endfacet
  facet normal 0 -1 0
    outer loop
      vertex -41 12 3
      vertex -39 12 10
      vertex -41 12 9
    endloop
  endfacet
  facet normal 0 -1 -0
    outer loop
      vertex -39 12 10
      vertex -41 12 3
      vertex -39 12 0
    endloop
  endfacet
  facet normal 0.447214 0.894427 0
    outer loop
      vertex -39 13.5528 10
      vertex -41 14.5528 3
      vertex -41 14.5528 9
    endloop
  endfacet
  facet normal 0.447214 0.894427 0
    outer loop
      vertex -41 14.5528 3
      vertex -39 13.5528 10
      vertex -39 13.5528 0
    endloop
  endfacet
  facet normal 0.447214 -0.894427 0
    outer loop
      vertex -41 17.4472 3
      vertex -39 18.4472 10
      vertex -41 17.4472 9
    endloop
  endfacet
  facet normal 0.447214 -0.894427 0
    outer loop
      vertex -39 18.4472 10
      vertex -41 17.4472 3
      vertex -39 18.4472 0
    endloop
  endfacet
  facet normal 0 1 0
    outer loop
      vertex -39 20 10
      vertex -41 20 3
      vertex -41 20 9
    endloop
  endfacet
  facet normal -0 1 0
    outer loop
      vertex -41 20 3
      vertex -39 20 10
      vertex -39 20 0
    endloop
  endfacet
  facet normal -0.83205 0 -0.5547
    outer loop
      vertex -41 12 3
      vertex -39 13.5528 0
      vertex -39 12 0
    endloop
  endfacet
  facet normal -0.83205 0 -0.5547
    outer loop
      vertex -39 13.5528 0
      vertex -41 12 3
      vertex -41 14.5528 3
    endloop
  endfacet
  facet normal -0.83205 0 -0.5547
    outer loop
      vertex -39 18.4472 0
      vertex -41 20 3
      vertex -39 20 0
    endloop
  endfacet
  facet normal -0.83205 -0 -0.5547
    outer loop
      vertex -41 20 3
      vertex -39 18.4472 0
      vertex -41 17.4472 3
    endloop
  endfacet
  facet normal -0.83205 0 -0.5547
    outer loop
      vertex -39 -17 0
      vertex -41 -14 3
      vertex -39 -15 0
    endloop
  endfacet
  facet normal -0.83205 -0 -0.5547
    outer loop
      vertex -41 -14 3
      vertex -39 -17 0
      vertex -41 -18 3
    endloop
  endfacet
  facet normal -0.447214 0 0.894427
    outer loop
      vertex -41 12 9
      vertex -39 13.5528 10
      vertex -41 14.5528 9
    endloop
  endfacet
  facet normal -0.447214 0 0.894427
    outer loop
      vertex -39 13.5528 10
      vertex -41 12 9
      vertex -39 12 10
    endloop
  endfacet
  facet normal -0.447214 0 0.894427
    outer loop
      vertex -41 20 9
      vertex -39 18.4472 10
      vertex -39 20 10
    endloop
  endfacet
  facet normal -0.447214 0 0.894427
    outer loop
      vertex -39 18.4472 10
      vertex -41 20 9
      vertex -41 17.4472 9
    endloop
  endfacet
  facet normal -0.447214 0 0.894427
    outer loop
      vertex -41 -14 9
      vertex -39 -17 10
      vertex -39 -15 10
    endloop
  endfacet
  facet normal -0.447214 0 0.894427
    outer loop
      vertex -39 -17 10
      vertex -41 -14 9
      vertex -41 -18 9
    endloop
  endfacet
  facet normal 0 -1 0
    outer loop
      vertex -14.5528 -41 3
      vertex -12 -41 9
      vertex -14.5528 -41 9
    endloop
  endfacet
  facet normal 0 -1 -0
    outer loop
      vertex -12 -41 9
      vertex -14.5528 -41 3
      vertex -12 -41 3
    endloop
  endfacet
  facet normal 0 -1 0
    outer loop
      vertex -20 -41 3
      vertex -17.4472 -41 9
      vertex -20 -41 9
    endloop
  endfacet
  facet normal 0 -1 -0
    outer loop
      vertex -17.4472 -41 9
      vertex -20 -41 3
      vertex -17.4472 -41 3
    endloop
  endfacet
  facet normal 0 -1 0
    outer loop
      vertex 14 -41 3
      vertex 18 -41 9
      vertex 14 -41 9
    endloop
  endfacet
  facet normal 0 -1 -0
    outer loop
      vertex 18 -41 9
      vertex 14 -41 3
      vertex 18 -41 3
    endloop
  endfacet
  facet normal 0.894427 0.447214 -0
    outer loop
      vertex 18 -41 3
      vertex 17 -39 10
      vertex 18 -41 9
    endloop
  endfacet
  facet normal 0.894427 0.447214 0
    outer loop
      vertex 17 -39 10
      vertex 18 -41 3
      vertex 17 -39 0
    endloop
  endfacet
  facet normal -0.894427 0.447214 0
    outer loop
      vertex 14 -41 3
      vertex 15 -39 10
      vertex 15 -39 0
    endloop
  endfacet
  facet normal -0.894427 0.447214 0
    outer loop
      vertex 15 -39 10
      vertex 14 -41 3
      vertex 14 -41 9
    endloop
  endfacet
  facet normal 1 0 0
    outer loop
      vertex -12 -41 3
      vertex -12 -39 10
      vertex -12 -41 9
    endloop
  endfacet
  facet normal 1 0 0
    outer loop
      vertex -12 -39 10
      vertex -12 -41 3
      vertex -12 -39 0
    endloop
  endfacet
  facet normal -0.894427 0.447214 0
    outer loop
      vertex -14.5528 -41 3
      vertex -13.5528 -39 10
      vertex -13.5528 -39 0
    endloop
  endfacet
  facet normal -0.894427 0.447214 0
    outer loop
      vertex -13.5528 -39 10
      vertex -14.5528 -41 3
      vertex -14.5528 -41 9
    endloop
  endfacet
  facet normal 0.894427 0.447214 -0
    outer loop
      vertex -17.4472 -41 3
      vertex -18.4472 -39 10
      vertex -17.4472 -41 9
    endloop
  endfacet
  facet normal 0.894427 0.447214 0
    outer loop
      vertex -18.4472 -39 10
      vertex -17.4472 -41 3
      vertex -18.4472 -39 0
    endloop
  endfacet
  facet normal -1 0 0
    outer loop
      vertex -20 -41 3
      vertex -20 -39 10
      vertex -20 -39 0
    endloop
  endfacet
  facet normal -1 0 0
    outer loop
      vertex -20 -39 10
      vertex -20 -41 3
      vertex -20 -41 9
    endloop
  endfacet
  facet normal 0 -0.83205 -0.5547
    outer loop
      vertex -13.5528 -39 0
      vertex -12 -41 3
      vertex -14.5528 -41 3
    endloop
  endfacet
  facet normal 0 -0.83205 -0.5547
    outer loop
      vertex -12 -41 3
      vertex -13.5528 -39 0
      vertex -12 -39 0
    endloop
  endfacet
  facet normal -0 -0.83205 -0.5547
    outer loop
      vertex -18.4472 -39 0
      vertex -20 -41 3
      vertex -20 -39 0
    endloop
  endfacet
  facet normal 0 -0.83205 -0.5547
    outer loop
      vertex -20 -41 3
      vertex -18.4472 -39 0
      vertex -17.4472 -41 3
    endloop
  endfacet
  facet normal 0 -0.83205 -0.5547
    outer loop
      vertex 15 -39 0
      vertex 18 -41 3
      vertex 14 -41 3
    endloop
  endfacet
  facet normal 0 -0.83205 -0.5547
    outer loop
      vertex 18 -41 3
      vertex 15 -39 0
      vertex 17 -39 0
    endloop
  endfacet
  facet normal 0 -0.447214 0.894427
    outer loop
      vertex -13.5528 -39 10
      vertex -12 -41 9
      vertex -12 -39 10
    endloop
  endfacet
  facet normal 0 -0.447214 0.894427
    outer loop
      vertex -12 -41 9
      vertex -13.5528 -39 10
      vertex -14.5528 -41 9
    endloop
  endfacet
  facet normal 0 -0.447214 0.894427
    outer loop
      vertex -20 -41 9
      vertex -18.4472 -39 10
      vertex -20 -39 10
    endloop
  endfacet
  facet normal 0 -0.447214 0.894427
    outer loop
      vertex -18.4472 -39 10
      vertex -20 -41 9
      vertex -17.4472 -41 9
    endloop
  endfacet
  facet normal 0 -0.447214 0.894427
    outer loop
      vertex 15 -39 10
      vertex 18 -41 9
      vertex 17 -39 10
    endloop
  endfacet
  facet normal 0 -0.447214 0.894427
    outer loop
      vertex 18 -41 9
      vertex 15 -39 10
      vertex 14 -41 9
    endloop
  endfacet
  facet normal 0 -1 0
    outer loop
      vertex 36 -0.300003 2
      vertex 36 -0.300003 20
      vertex 0.300049 -0.300003 20
    endloop
  endfacet
  facet normal 0 -1 0
    outer loop
      vertex 36 -0.300003 20
      vertex 36 -0.300003 2
      vertex 38 -0.300003 18
    endloop
  endfacet
  facet normal 0 -1 0
    outer loop
      vertex 0.300049 -0.300003 1
      vertex 36 -0.300003 2
      vertex 0.300049 -0.300003 20
    endloop
  endfacet
  facet normal 0 -1 -0
    outer loop
      vertex 36 -0.300003 2
      vertex 0.300049 -0.300003 1
      vertex 36 -0.300003 1
    endloop
  endfacet
  facet normal 0 -1 -0
    outer loop
      vertex 38 -0.300003 18
      vertex 36 -0.300003 2
      vertex 38 -0.300003 2
    endloop
  endfacet
  facet normal 0 1 0
    outer loop
      vertex 36 0.300003 2
      vertex 36 0.300003 20
      vertex 38 0.300003 18
    endloop
  endfacet
  facet normal 0 1 0
    outer loop
      vertex 36 0.300003 2
      vertex 38 0.300003 18
      vertex 38 0.300003 2
    endloop
  endfacet
  facet normal 0 1 0
    outer loop
      vertex 36 0.300003 20
      vertex 36 0.300003 2
      vertex 0.300049 0.300003 20
    endloop
  endfacet
  facet normal 0 1 0
    outer loop
      vertex 0.300049 0.300003 1
      vertex 36 0.300003 2
      vertex 36 0.300003 1
    endloop
  endfacet
  facet normal 0 1 0
    outer loop
      vertex 36 0.300003 2
      vertex 0.300049 0.300003 1
      vertex 0.300049 0.300003 20
    endloop
  endfacet
  facet normal 1 0 0
    outer loop
      vertex 0.300049 36 2
      vertex 0.300049 38 18
      vertex 0.300049 36 20
    endloop
  endfacet
  facet normal 1 0 0
    outer loop
      vertex 0.300049 38 18
      vertex 0.300049 36 2
      vertex 0.300049 38 2
    endloop
  endfacet
  facet normal 1 -0 0
    outer loop
      vertex 0.300049 0.300003 20
      vertex 0.300049 36 2
      vertex 0.300049 36 20
    endloop
  endfacet
  facet normal 1 0 0
    outer loop
      vertex 0.300049 0.300003 1
      vertex 0.300049 36 2
      vertex 0.300049 0.300003 20
    endloop
  endfacet
  facet normal 1 0 0
    outer loop
      vertex 0.300049 36 2
      vertex 0.300049 0.300003 1
      vertex 0.300049 36 1
    endloop
  endfacet
  facet normal -1 0 0
    outer loop
      vertex -0.299957 0.300003 1
      vertex -0.299957 36 2
      vertex -0.299957 36 1
    endloop
  endfacet
  facet normal -1 0 0
    outer loop
      vertex -0.299957 0.300003 20
      vertex -0.299957 36 2
      vertex -0.299957 0.300003 1
    endloop
  endfacet
  facet normal -1 0 0
    outer loop
      vertex -0.299957 36 2
      vertex -0.299957 0.300003 20
      vertex -0.299957 36 20
    endloop
  endfacet
  facet normal -1 0 0
    outer loop
      vertex -0.299957 36 2
      vertex -0.299957 38 18
      vertex -0.299957 38 2
    endloop
  endfacet
  facet normal -1 -0 0
    outer loop
      vertex -0.299957 38 18
      vertex -0.299957 36 2
      vertex -0.299957 36 20
    endloop
  endfacet
  facet normal 0 1 0
    outer loop
      vertex -36 0.300003 2
      vertex -36 0.300003 20
      vertex -0.299957 0.300003 20
    endloop
  endfacet
  facet normal 0 1 0
    outer loop
      vertex -36 0.300003 20
      vertex -36 0.300003 2
      vertex -38 0.300003 18
    endloop
  endfacet
  facet normal 0 1 -0
    outer loop
      vertex -0.299957 0.300003 1
      vertex -36 0.300003 2
      vertex -0.299957 0.300003 20
    endloop
  endfacet
  facet normal 0 1 0
    outer loop
      vertex -36 0.300003 2
      vertex -0.299957 0.300003 1
      vertex -36 0.300003 1
    endloop
  endfacet
  facet normal 0 1 0
    outer loop
      vertex -38 0.300003 18
      vertex -36 0.300003 2
      vertex -38 0.300003 2
    endloop
  endfacet
  facet normal 0 -1 0
    outer loop
      vertex -36 -0.300003 2
      vertex -36 -0.300003 20
      vertex -38 -0.300003 18
    endloop
  endfacet
  facet normal 0 -1 0
    outer loop
      vertex -36 -0.300003 2
      vertex -38 -0.300003 18
      vertex -38 -0.300003 2
    endloop
  endfacet
  facet normal 0 -1 0
    outer loop
      vertex -36 -0.300003 20
      vertex -36 -0.300003 2
      vertex -0.299957 -0.300003 20
    endloop
  endfacet
  facet normal 0 -1 0
    outer loop
      vertex -0.299957 -0.300003 1
      vertex -36 -0.300003 2
      vertex -36 -0.300003 1
    endloop
  endfacet
  facet normal 0 -1 0
    outer loop
      vertex -36 -0.300003 2
      vertex -0.299957 -0.300003 1
      vertex -0.299957 -0.300003 20
    endloop
  endfacet
  facet normal -1 0 0
    outer loop
      vertex -0.299957 -36 2
      vertex -0.299957 -0.300003 1
      vertex -0.299957 -36 1
    endloop
  endfacet
  facet normal -1 0 0
    outer loop
      vertex -0.299957 -0.300003 1
      vertex -0.299957 -36 2
      vertex -0.299957 -0.300003 20
    endloop
  endfacet
  facet normal -1 0 0
    outer loop
      vertex -0.299957 -36 2
      vertex -0.299957 -36 20
      vertex -0.299957 -0.300003 20
    endloop
  endfacet
  facet normal -1 0 0
    outer loop
      vertex -0.299957 -38 18
      vertex -0.299957 -36 2
      vertex -0.299957 -38 2
    endloop
  endfacet
  facet normal -1 0 0
    outer loop
      vertex -0.299957 -36 2
      vertex -0.299957 -38 18
      vertex -0.299957 -36 20
    endloop
  endfacet
  facet normal 1 -0 0
    outer loop
      vertex 0.300049 -38 18
      vertex 0.300049 -36 2
      vertex 0.300049 -36 20
    endloop
  endfacet
  facet normal 1 0 0
    outer loop
      vertex 0.300049 -36 2
      vertex 0.300049 -38 18
      vertex 0.300049 -38 2
    endloop
  endfacet
  facet normal 1 0 0
    outer loop
      vertex 0.300049 -36 2
      vertex 0.300049 -0.300003 20
      vertex 0.300049 -36 20
    endloop
  endfacet
  facet normal 1 0 0
    outer loop
      vertex 0.300049 -0.300003 20
      vertex 0.300049 -36 2
      vertex 0.300049 -0.300003 1
    endloop
  endfacet
  facet normal 1 0 0
    outer loop
      vertex 0.300049 -0.300003 1
      vertex 0.300049 -36 2
      vertex 0.300049 -36 1
    endloop
  endfacet
  facet normal -0.707107 0 -0.707107
    outer loop
      vertex 38 0.300003 18
      vertex 36 5.5 20
      vertex 38 5.5 18
    endloop
  endfacet
  facet normal -0.707107 -0 -0.707107
    outer loop
      vertex 36 5.5 20
      vertex 38 0.300003 18
      vertex 36 0.300003 20
    endloop
  endfacet
  facet normal -0.707107 0 -0.707107
    outer loop
      vertex 38 -5.5 18
      vertex 36 -0.300003 20
      vertex 38 -0.300003 18
    endloop
  endfacet
  facet normal -0.707107 -0 -0.707107
    outer loop
      vertex 36 -0.300003 20
      vertex 38 -5.5 18
      vertex 36 -5.5 20
    endloop
  endfacet
  facet normal 0 -0.707107 -0.707107
    outer loop
      vertex 0.300049 38 18
      vertex 5.5 36 20
      vertex 0.300049 36 20
    endloop
  endfacet
  facet normal 0 -0.707107 -0.707107
    outer loop
      vertex 5.5 36 20
      vertex 0.300049 38 18
      vertex 5.5 38 18
    endloop
  endfacet
  facet normal 0 -0.707107 -0.707107
    outer loop
      vertex -5.5 38 18
      vertex -0.299957 36 20
      vertex -5.5 36 20
    endloop
  endfacet
  facet normal 0 -0.707107 -0.707107
    outer loop
      vertex -0.299957 36 20
      vertex -5.5 38 18
      vertex -0.299957 38 18
    endloop
  endfacet
  facet normal 0.707107 0 -0.707107
    outer loop
      vertex -36 0.300003 20
      vertex -38 5.5 18
      vertex -36 5.5 20
    endloop
  endfacet
  facet normal 0.707107 0 -0.707107
    outer loop
      vertex -38 5.5 18
      vertex -36 0.300003 20
      vertex -38 0.300003 18
    endloop
  endfacet
  facet normal 0.707107 0 -0.707107
    outer loop
      vertex -36 -5.5 20
      vertex -38 -0.300003 18
      vertex -36 -0.300003 20
    endloop
  endfacet
  facet normal 0.707107 0 -0.707107
    outer loop
      vertex -38 -0.300003 18
      vertex -36 -5.5 20
      vertex -38 -5.5 18
    endloop
  endfacet
  facet normal 0 0.707107 -0.707107
    outer loop
      vertex 5.5 -38 18
      vertex 0.300049 -36 20
      vertex 5.5 -36 20
    endloop
  endfacet
  facet normal 0 0.707107 -0.707107
    outer loop
      vertex 0.300049 -36 20
      vertex 5.5 -38 18
      vertex 0.300049 -38 18
    endloop
  endfacet
  facet normal 0 0.707107 -0.707107
    outer loop
      vertex -0.299957 -38 18
      vertex -5.5 -36 20
      vertex -0.299957 -36 20
    endloop
  endfacet
  facet normal 0 0.707107 -0.707107
    outer loop
      vertex -5.5 -36 20
      vertex -0.299957 -38 18
      vertex -5.5 -38 18
    endloop
  endfacet
  facet normal 0 -1 0
    outer loop
      vertex -36 38 20
      vertex -5.5 38 18
      vertex -5.5 38 20
    endloop
  endfacet
  facet normal 0 -1 0
    outer loop
      vertex -5.5 38 18
      vertex -5.5 38 2
      vertex -0.299957 38 18
    endloop
  endfacet
  facet normal 0 -1 0
    outer loop
      vertex -36 38 1
      vertex -5.5 38 18
      vertex -36 38 20
    endloop
  endfacet
  facet normal 0 -1 -0
    outer loop
      vertex -5.5 38 18
      vertex -36 38 1
      vertex -5.5 38 2
    endloop
  endfacet
  facet normal 0 -1 -0
    outer loop
      vertex -5.5 38 2
      vertex -36 38 1
      vertex -5.5 38 1
    endloop
  endfacet
  facet normal 0 -1 -0
    outer loop
      vertex -0.299957 38 18
      vertex -5.5 38 2
      vertex -0.299957 38 2
    endloop
  endfacet
  facet normal 0 -1 0
    outer loop
      vertex 0.300049 38 18
      vertex 0.300049 38 2
      vertex 5.5 38 18
    endloop
  endfacet
  facet normal 0 -1 0
    outer loop
      vertex 5.5 38 18
      vertex 36 38 20
      vertex 5.5 38 20
    endloop
  endfacet
  facet normal 0 -1 0
    outer loop
      vertex 5.5 38 2
      vertex 5.5 38 18
      vertex 0.300049 38 2
    endloop
  endfacet
  facet normal 0 -1 0
    outer loop
      vertex 36 38 1
      vertex 5.5 38 18
      vertex 5.5 38 2
    endloop
  endfacet
  facet normal 0 -1 0
    outer loop
      vertex 36 38 1
      vertex 5.5 38 2
      vertex 5.5 38 1
    endloop
  endfacet
  facet normal 0 -1 0
    outer loop
      vertex 5.5 38 18
      vertex 36 38 1
      vertex 36 38 20
    endloop
  endfacet
  facet normal -1 -0 -0
    outer loop
      vertex -5.5 38 20
      vertex -5.5 38 18
      vertex -5.5 36 20
    endloop
  endfacet
  facet normal 1 0 -0
    outer loop
      vertex 5.5 38 18
      vertex 5.5 38 20
      vertex 5.5 36 20
    endloop
  endfacet
  facet normal -0 1 0
    outer loop
      vertex -38 5.5 20
      vertex -36 5.5 20
      vertex -38 5.5 18
    endloop
  endfacet
  facet normal 1 -0 0
    outer loop
      vertex -38 0.300003 18
      vertex -38 5.5 2
      vertex -38 5.5 18
    endloop
  endfacet
  facet normal 1 0 0
    outer loop
      vertex -38 5.5 2
      vertex -38 0.300003 18
      vertex -38 0.300003 2
    endloop
  endfacet
  facet normal 1 0 0
    outer loop
      vertex -38 5.5 18
      vertex -38 36 20
      vertex -38 5.5 20
    endloop
  endfacet
  facet normal 1 0 0
    outer loop
      vertex -38 36 20
      vertex -38 5.5 18
      vertex -38 36 1
    endloop
  endfacet
  facet normal 1 -0 0
    outer loop
      vertex -38 5.5 2
      vertex -38 36 1
      vertex -38 5.5 18
    endloop
  endfacet
  facet normal 1 0 0
    outer loop
      vertex -38 36 1
      vertex -38 5.5 2
      vertex -38 5.5 1
    endloop
  endfacet
  facet normal 1 -0 0
    outer loop
      vertex -38 -36 20
      vertex -38 -5.5 18
      vertex -38 -5.5 20
    endloop
  endfacet
  facet normal 1 0 0
    outer loop
      vertex -38 -36 1
      vertex -38 -5.5 18
      vertex -38 -36 20
    endloop
  endfacet
  facet normal 1 0 0
    outer loop
      vertex -38 -5.5 18
      vertex -38 -36 1
      vertex -38 -5.5 2
    endloop
  endfacet
  facet normal 1 0 0
    outer loop
      vertex -38 -5.5 2
      vertex -38 -36 1
      vertex -38 -5.5 1
    endloop
  endfacet
  facet normal 1 -0 0
    outer loop
      vertex -38 -5.5 18
      vertex -38 -0.300003 2
      vertex -38 -0.300003 18
    endloop
  endfacet
  facet normal 1 0 0
    outer loop
      vertex -38 -0.300003 2
      vertex -38 -5.5 18
      vertex -38 -5.5 2
    endloop
  endfacet
  facet normal -0 -1 0
    outer loop
      vertex -36 -5.5 20
      vertex -38 -5.5 20
      vertex -38 -5.5 18
    endloop
  endfacet
  facet normal 0 1 0
    outer loop
      vertex 38 5.5 20
      vertex 38 5.5 18
      vertex 36 5.5 20
    endloop
  endfacet
  facet normal 0 -1 0
    outer loop
      vertex 38 -5.5 18
      vertex 38 -5.5 20
      vertex 36 -5.5 20
    endloop
  endfacet
  facet normal -1 0 0
    outer loop
      vertex 38 -36 1
      vertex 38 -5.5 2
      vertex 38 -5.5 1
    endloop
  endfacet
  facet normal -1 -0 0
    outer loop
      vertex 38 -5.5 2
      vertex 38 -36 1
      vertex 38 -5.5 18
    endloop
  endfacet
  facet normal -1 0 0
    outer loop
      vertex 38 -36 20
      vertex 38 -5.5 18
      vertex 38 -36 1
    endloop
  endfacet
  facet normal -1 0 0
    outer loop
      vertex 38 -5.5 18
      vertex 38 -36 20
      vertex 38 -5.5 20
    endloop
  endfacet
  facet normal -1 0 0
    outer loop
      vertex 38 -5.5 2
      vertex 38 -0.300003 18
      vertex 38 -0.300003 2
    endloop
  endfacet
  facet normal -1 -0 0
    outer loop
      vertex 38 -0.300003 18
      vertex 38 -5.5 2
      vertex 38 -5.5 18
    endloop
  endfacet
  facet normal -1 0 0
    outer loop
      vertex 38 0.300003 2
      vertex 38 5.5 18
      vertex 38 5.5 2
    endloop
  endfacet
  facet normal -1 -0 0
    outer loop
      vertex 38 5.5 18
      vertex 38 0.300003 2
      vertex 38 0.300003 18
    endloop
  endfacet
  facet normal -1 0 0
    outer loop
      vertex 38 5.5 2
      vertex 38 36 1
      vertex 38 5.5 1
    endloop
  endfacet
  facet normal -1 0 0
    outer loop
      vertex 38 5.5 18
      vertex 38 36 1
      vertex 38 5.5 2
    endloop
  endfacet
  facet normal -1 0 0
    outer loop
      vertex 38 36 1
      vertex 38 5.5 18
      vertex 38 36 20
    endloop
  endfacet
  facet normal -1 -0 0
    outer loop
      vertex 38 36 20
      vertex 38 5.5 18
      vertex 38 5.5 20
    endloop
  endfacet
  facet normal -1 0 0
    outer loop
      vertex -5.5 -38 20
      vertex -5.5 -36 20
      vertex -5.5 -38 18
    endloop
  endfacet
  facet normal 0 1 0
    outer loop
      vertex 36 -38 20
      vertex 5.5 -38 18
      vertex 5.5 -38 20
    endloop
  endfacet
  facet normal 0 1 0
    outer loop
      vertex 5.5 -38 18
      vertex 5.5 -38 2
      vertex 0.300049 -38 18
    endloop
  endfacet
  facet normal 0 1 -0
    outer loop
      vertex 36 -38 1
      vertex 5.5 -38 18
      vertex 36 -38 20
    endloop
  endfacet
  facet normal 0 1 0
    outer loop
      vertex 5.5 -38 18
      vertex 36 -38 1
      vertex 5.5 -38 2
    endloop
  endfacet
  facet normal 0 1 0
    outer loop
      vertex 5.5 -38 2
      vertex 36 -38 1
      vertex 5.5 -38 1
    endloop
  endfacet
  facet normal 0 1 0
    outer loop
      vertex 0.300049 -38 18
      vertex 5.5 -38 2
      vertex 0.300049 -38 2
    endloop
  endfacet
  facet normal 0 1 0
    outer loop
      vertex -0.299957 -38 18
      vertex -0.299957 -38 2
      vertex -5.5 -38 18
    endloop
  endfacet
  facet normal 0 1 -0
    outer loop
      vertex -5.5 -38 18
      vertex -36 -38 20
      vertex -5.5 -38 20
    endloop
  endfacet
  facet normal 0 1 0
    outer loop
      vertex -5.5 -38 2
      vertex -5.5 -38 18
      vertex -0.299957 -38 2
    endloop
  endfacet
  facet normal 0 1 0
    outer loop
      vertex -36 -38 1
      vertex -5.5 -38 18
      vertex -5.5 -38 2
    endloop
  endfacet
  facet normal 0 1 0
    outer loop
      vertex -36 -38 1
      vertex -5.5 -38 2
      vertex -5.5 -38 1
    endloop
  endfacet
  facet normal 0 1 0
    outer loop
      vertex -5.5 -38 18
      vertex -36 -38 1
      vertex -36 -38 20
    endloop
  endfacet
  facet normal 1 0 0
    outer loop
      vertex 5.5 -36 20
      vertex 5.5 -38 20
      vertex 5.5 -38 18
    endloop
  endfacet
  facet normal -0 0 1
    outer loop
      vertex -5 37.5 21
      vertex 5 36.5 21
      vertex 5 37.5 21
    endloop
  endfacet
  facet normal 0 0 1
    outer loop
      vertex 5 36.5 21
      vertex -5 37.5 21
      vertex -5 36.5 21
    endloop
  endfacet
  facet normal -0 0 1
    outer loop
      vertex -37.5 5 21
      vertex -36.5 -5 21
      vertex -36.5 5 21
    endloop
  endfacet
  facet normal 0 0 1
    outer loop
      vertex -36.5 -5 21
      vertex -37.5 5 21
      vertex -37.5 -5 21
    endloop
  endfacet
  facet normal -0 0 1
    outer loop
      vertex 36.5 5 21
      vertex 37.5 -5 21
      vertex 37.5 5 21
    endloop
  endfacet
  facet normal 0 0 1
    outer loop
      vertex 37.5 -5 21
      vertex 36.5 5 21
      vertex 36.5 -5 21
    endloop
  endfacet
  facet normal -0 0 1
    outer loop
      vertex -5 -36.5 21
      vertex 5 -37.5 21
      vertex 5 -36.5 21
    endloop
  endfacet
  facet normal 0 0 1
    outer loop
      vertex 5 -37.5 21
      vertex -5 -36.5 21
      vertex -5 -37.5 21
    endloop
  endfacet
  facet normal 0 1 -0
    outer loop
      vertex 5 37.5 20
      vertex -5 37.5 21
      vertex 5 37.5 21
    endloop
  endfacet
  facet normal 0 1 0
    outer loop
      vertex -5 37.5 21
      vertex 5 37.5 20
      vertex -5 37.5 20
    endloop
  endfacet
  facet normal -1 0 0
    outer loop
      vertex -5 36.5 20
      vertex -5 37.5 21
      vertex -5 37.5 20
    endloop
  endfacet
  facet normal -1 -0 0
    outer loop
      vertex -5 37.5 21
      vertex -5 36.5 20
      vertex -5 36.5 21
    endloop
  endfacet
  facet normal 0 -1 0
    outer loop
      vertex -5 36.5 20
      vertex 5 36.5 21
      vertex -5 36.5 21
    endloop
  endfacet
  facet normal 0 -1 -0
    outer loop
      vertex 5 36.5 21
      vertex -5 36.5 20
      vertex 5 36.5 20
    endloop
  endfacet
  facet normal 1 -0 0
    outer loop
      vertex 5 36.5 21
      vertex 5 37.5 20
      vertex 5 37.5 21
    endloop
  endfacet
  facet normal 1 0 0
    outer loop
      vertex 5 37.5 20
      vertex 5 36.5 21
      vertex 5 36.5 20
    endloop
  endfacet
  facet normal 0 1 -0
    outer loop
      vertex -36.5 5 20
      vertex -37.5 5 21
      vertex -36.5 5 21
    endloop
  endfacet
  facet normal 0 1 0
    outer loop
      vertex -37.5 5 21
      vertex -36.5 5 20
      vertex -37.5 5 20
    endloop
  endfacet
  facet normal -1 0 0
    outer loop
      vertex -37.5 -5 20
      vertex -37.5 5 21
      vertex -37.5 5 20
    endloop
  endfacet
  facet normal -1 -0 0
    outer loop
      vertex -37.5 5 21
      vertex -37.5 -5 20
      vertex -37.5 -5 21
    endloop
  endfacet
  facet normal 0 -1 0
    outer loop
      vertex -37.5 -5 20
      vertex -36.5 -5 21
      vertex -37.5 -5 21
    endloop
  endfacet
  facet normal 0 -1 -0
    outer loop
      vertex -36.5 -5 21
      vertex -37.5 -5 20
      vertex -36.5 -5 20
    endloop
  endfacet
  facet normal 1 -0 0
    outer loop
      vertex -36.5 -5 21
      vertex -36.5 5 20
      vertex -36.5 5 21
    endloop
  endfacet
  facet normal 1 0 0
    outer loop
      vertex -36.5 5 20
      vertex -36.5 -5 21
      vertex -36.5 -5 20
    endloop
  endfacet
  facet normal 0 1 -0
    outer loop
      vertex 37.5 5 20
      vertex 36.5 5 21
      vertex 37.5 5 21
    endloop
  endfacet
  facet normal 0 1 0
    outer loop
      vertex 36.5 5 21
      vertex 37.5 5 20
      vertex 36.5 5 20
    endloop
  endfacet
  facet normal -1 0 0
    outer loop
      vertex 36.5 -5 20
      vertex 36.5 5 21
      vertex 36.5 5 20
    endloop
  endfacet
  facet normal -1 -0 0
    outer loop
      vertex 36.5 5 21
      vertex 36.5 -5 20
      vertex 36.5 -5 21
    endloop
  endfacet
  facet normal 0 -1 0
    outer loop
      vertex 36.5 -5 20
      vertex 37.5 -5 21
      vertex 36.5 -5 21
    endloop
  endfacet
  facet normal 0 -1 -0
    outer loop
      vertex 37.5 -5 21
      vertex 36.5 -5 20
      vertex 37.5 -5 20
    endloop
  endfacet
  facet normal 1 -0 0
    outer loop
      vertex 37.5 -5 21
      vertex 37.5 5 20
      vertex 37.5 5 21
    endloop
  endfacet
  facet normal 1 0 0
    outer loop
      vertex 37.5 5 20
      vertex 37.5 -5 21
      vertex 37.5 -5 20
    endloop
  endfacet
  facet normal 0 1 -0
    outer loop
      vertex 5 -36.5 20
      vertex -5 -36.5 21
      vertex 5 -36.5 21
    endloop
  endfacet
  facet normal 0 1 0
    outer loop
      vertex -5 -36.5 21
      vertex 5 -36.5 20
      vertex -5 -36.5 20
    endloop
  endfacet
  facet normal -1 0 0
    outer loop
      vertex -5 -37.5 20
      vertex -5 -36.5 21
      vertex -5 -36.5 20
    endloop
  endfacet
  facet normal -1 -0 0
    outer loop
      vertex -5 -36.5 21
      vertex -5 -37.5 20
      vertex -5 -37.5 21
    endloop
  endfacet
  facet normal 0 -1 0
    outer loop
      vertex -5 -37.5 20
      vertex 5 -37.5 21
      vertex -5 -37.5 21
    endloop
  endfacet
  facet normal 0 -1 -0
    outer loop
      vertex 5 -37.5 21
      vertex -5 -37.5 20
      vertex 5 -37.5 20
    endloop
  endfacet
  facet normal 1 -0 0
    outer loop
      vertex 5 -37.5 21
      vertex 5 -36.5 20
      vertex 5 -36.5 21
    endloop
  endfacet
  facet normal 1 0 0
    outer loop
      vertex 5 -36.5 20
      vertex 5 -37.5 21
      vertex 5 -37.5 20
    endloop
  endfacet
  facet normal -0 0 1
    outer loop
      vertex -5.5 38 2
      vertex -0.299957 36 2
      vertex -0.299957 38 2
    endloop
  endfacet
  facet normal 0 0 1
    outer loop
      vertex -0.299957 36 2
      vertex -5.5 38 2
      vertex -5.5 36 2
    endloop
  endfacet
  facet normal -0 0 1
    outer loop
      vertex 0.300049 38 2
      vertex 5.5 36 2
      vertex 5.5 38 2
    endloop
  endfacet
  facet normal 0 0 1
    outer loop
      vertex 5.5 36 2
      vertex 0.300049 38 2
      vertex 0.300049 36 2
    endloop
  endfacet
  facet normal -0 0 1
    outer loop
      vertex -38 5.5 2
      vertex -36 0.300003 2
      vertex -36 5.5 2
    endloop
  endfacet
  facet normal 0 0 1
    outer loop
      vertex -36 0.300003 2
      vertex -38 5.5 2
      vertex -38 0.300003 2
    endloop
  endfacet
  facet normal -0 0 1
    outer loop
      vertex -38 -0.300003 2
      vertex -36 -5.5 2
      vertex -36 -0.300003 2
    endloop
  endfacet
  facet normal 0 0 1
    outer loop
      vertex -36 -5.5 2
      vertex -38 -0.300003 2
      vertex -38 -5.5 2
    endloop
  endfacet
  facet normal -0 0 1
    outer loop
      vertex 36 -0.300003 2
      vertex 38 -5.5 2
      vertex 38 -0.300003 2
    endloop
  endfacet
  facet normal 0 0 1
    outer loop
      vertex 38 -5.5 2
      vertex 36 -0.300003 2
      vertex 36 -5.5 2
    endloop
  endfacet
  facet normal -0 0 1
    outer loop
      vertex 36 5.5 2
      vertex 38 0.300003 2
      vertex 38 5.5 2
    endloop
  endfacet
  facet normal 0 0 1
    outer loop
      vertex 38 0.300003 2
      vertex 36 5.5 2
      vertex 36 0.300003 2
    endloop
  endfacet
  facet normal -0 0 1
    outer loop
      vertex 0.300049 -36 2
      vertex 5.5 -38 2
      vertex 5.5 -36 2
    endloop
  endfacet
  facet normal 0 0 1
    outer loop
      vertex 5.5 -38 2
      vertex 0.300049 -36 2
      vertex 0.300049 -38 2
    endloop
  endfacet
  facet normal -0 0 1
    outer loop
      vertex -5.5 -36 2
      vertex -0.299957 -38 2
      vertex -0.299957 -36 2
    endloop
  endfacet
  facet normal 0 0 1
    outer loop
      vertex -0.299957 -38 2
      vertex -5.5 -36 2
      vertex -5.5 -38 2
    endloop
  endfacet
  facet normal -1 0 0
    outer loop
      vertex -5.5 36 1
      vertex -5.5 38 2
      vertex -5.5 38 1
    endloop
  endfacet
  facet normal -1 -0 0
    outer loop
      vertex -5.5 38 2
      vertex -5.5 36 1
      vertex -5.5 36 2
    endloop
  endfacet
  facet normal 0 -1 0
    outer loop
      vertex 0.300049 36 1
      vertex 5.5 36 2
      vertex 0.300049 36 2
    endloop
  endfacet
  facet normal 0 -1 -0
    outer loop
      vertex 5.5 36 2
      vertex 0.300049 36 1
      vertex 5.5 36 1
    endloop
  endfacet
  facet normal 0 -1 0
    outer loop
      vertex -5.5 36 1
      vertex -0.299957 36 2
      vertex -5.5 36 2
    endloop
  endfacet
  facet normal 0 -1 -0
    outer loop
      vertex -0.299957 36 2
      vertex -5.5 36 1
      vertex -0.299957 36 1
    endloop
  endfacet
  facet normal 1 -0 0
    outer loop
      vertex 5.5 36 2
      vertex 5.5 38 1
      vertex 5.5 38 2
    endloop
  endfacet
  facet normal 1 0 0
    outer loop
      vertex 5.5 38 1
      vertex 5.5 36 2
      vertex 5.5 36 1
    endloop
  endfacet
  facet normal 0 1 -0
    outer loop
      vertex -36 5.5 1
      vertex -38 5.5 2
      vertex -36 5.5 2
    endloop
  endfacet
  facet normal 0 1 0
    outer loop
      vertex -38 5.5 2
      vertex -36 5.5 1
      vertex -38 5.5 1
    endloop
  endfacet
  facet normal 0 -1 0
    outer loop
      vertex -38 -5.5 1
      vertex -36 -5.5 2
      vertex -38 -5.5 2
    endloop
  endfacet
  facet normal 0 -1 -0
    outer loop
      vertex -36 -5.5 2
      vertex -38 -5.5 1
      vertex -36 -5.5 1
    endloop
  endfacet
  facet normal 1 -0 0
    outer loop
      vertex -36 0.300003 2
      vertex -36 5.5 1
      vertex -36 5.5 2
    endloop
  endfacet
  facet normal 1 0 0
    outer loop
      vertex -36 5.5 1
      vertex -36 0.300003 2
      vertex -36 0.300003 1
    endloop
  endfacet
  facet normal 1 -0 0
    outer loop
      vertex -36 -5.5 2
      vertex -36 -0.300003 1
      vertex -36 -0.300003 2
    endloop
  endfacet
  facet normal 1 0 0
    outer loop
      vertex -36 -0.300003 1
      vertex -36 -5.5 2
      vertex -36 -5.5 1
    endloop
  endfacet
  facet normal 0 1 -0
    outer loop
      vertex 38 5.5 1
      vertex 36 5.5 2
      vertex 38 5.5 2
    endloop
  endfacet
  facet normal 0 1 0
    outer loop
      vertex 36 5.5 2
      vertex 38 5.5 1
      vertex 36 5.5 1
    endloop
  endfacet
  facet normal -1 0 0
    outer loop
      vertex 36 0.300003 1
      vertex 36 5.5 2
      vertex 36 5.5 1
    endloop
  endfacet
  facet normal -1 -0 0
    outer loop
      vertex 36 5.5 2
      vertex 36 0.300003 1
      vertex 36 0.300003 2
    endloop
  endfacet
  facet normal -1 0 0
    outer loop
      vertex 36 -5.5 1
      vertex 36 -0.300003 2
      vertex 36 -0.300003 1
    endloop
  endfacet
  facet normal -1 -0 0
    outer loop
      vertex 36 -0.300003 2
      vertex 36 -5.5 1
      vertex 36 -5.5 2
    endloop
  endfacet
  facet normal 0 -1 0
    outer loop
      vertex 36 -5.5 1
      vertex 38 -5.5 2
      vertex 36 -5.5 2
    endloop
  endfacet
  facet normal 0 -1 -0
    outer loop
      vertex 38 -5.5 2
      vertex 36 -5.5 1
      vertex 38 -5.5 1
    endloop
  endfacet
  facet normal 0 1 -0
    outer loop
      vertex 5.5 -36 1
      vertex 0.300049 -36 2
      vertex 5.5 -36 2
    endloop
  endfacet
  facet normal 0 1 0
    outer loop
      vertex 0.300049 -36 2
      vertex 5.5 -36 1
      vertex 0.300049 -36 1
    endloop
  endfacet
  facet normal 0 1 -0
    outer loop
      vertex -0.299957 -36 1
      vertex -5.5 -36 2
      vertex -0.299957 -36 2
    endloop
  endfacet
  facet normal 0 1 0
    outer loop
      vertex -5.5 -36 2
      vertex -0.299957 -36 1
      vertex -5.5 -36 1
    endloop
  endfacet
  facet normal -1 0 0
    outer loop
      vertex -5.5 -38 1
      vertex -5.5 -36 2
      vertex -5.5 -36 1
    endloop
  endfacet
  facet normal -1 -0 0
    outer loop
      vertex -5.5 -36 2
      vertex -5.5 -38 1
      vertex -5.5 -38 2
    endloop
  endfacet
  facet normal 1 -0 0
    outer loop
      vertex 5.5 -38 2
      vertex 5.5 -36 1
      vertex 5.5 -36 2
    endloop
  endfacet
  facet normal 1 0 0
    outer loop
      vertex 5.5 -36 1
      vertex 5.5 -38 2
      vertex 5.5 -38 1
    endloop
  endfacet
  facet normal 0 0 1
    outer loop
      vertex -5.5 38 1
      vertex -36 38 1
      vertex -5.5 36 1
    endloop
  endfacet
  facet normal -0 0 1
    outer loop
      vertex -5.5 36 1
      vertex -0.299957 0.300003 1
      vertex -0.299957 36 1
    endloop
  endfacet
  facet normal 0 0 1
    outer loop
      vertex -36 5.5 1
      vertex -5.5 36 1
      vertex -36 38 1
    endloop
  endfacet
  facet normal 0 0 1
    outer loop
      vertex -5.5 36 1
      vertex -36 5.5 1
      vertex -0.299957 0.300003 1
    endloop
  endfacet
  facet normal 0 0 1
    outer loop
      vertex -0.299957 0.300003 1
      vertex -36 5.5 1
      vertex -36 0.300003 1
    endloop
  endfacet
  facet normal -0 0 1
    outer loop
      vertex -38 36 1
      vertex -36 5.5 1
      vertex -36 38 1
    endloop
  endfacet
  facet normal 0 0 1
    outer loop
      vertex -36 5.5 1
      vertex -38 36 1
      vertex -38 5.5 1
    endloop
  endfacet
  facet normal 0 0 1
    outer loop
      vertex -0.299957 -0.300003 1
      vertex -5.5 -36 1
      vertex -0.299957 -36 1
    endloop
  endfacet
  facet normal 0 0 1
    outer loop
      vertex -36 -5.5 1
      vertex -0.299957 -0.300003 1
      vertex -36 -0.300003 1
    endloop
  endfacet
  facet normal 0 0 1
    outer loop
      vertex -0.299957 -0.300003 1
      vertex -36 -5.5 1
      vertex -5.5 -36 1
    endloop
  endfacet
  facet normal 0 0 1
    outer loop
      vertex -36 -38 1
      vertex -5.5 -36 1
      vertex -36 -5.5 1
    endloop
  endfacet
  facet normal 0 0 1
    outer loop
      vertex -5.5 -36 1
      vertex -36 -38 1
      vertex -5.5 -38 1
    endloop
  endfacet
  facet normal 0 0 1
    outer loop
      vertex -38 -36 1
      vertex -36 -5.5 1
      vertex -38 -5.5 1
    endloop
  endfacet
  facet normal 0 0 1
    outer loop
      vertex -36 -5.5 1
      vertex -38 -36 1
      vertex -36 -38 1
    endloop
  endfacet
  facet normal 0 0 1
    outer loop
      vertex 36 5.5 1
      vertex 38 36 1
      vertex 36 38 1
    endloop
  endfacet
  facet normal 0 0 1
    outer loop
      vertex 38 36 1
      vertex 36 5.5 1
      vertex 38 5.5 1
    endloop
  endfacet
  facet normal -0 0 1
    outer loop
      vertex 5.5 36 1
      vertex 36 5.5 1
      vertex 36 38 1
    endloop
  endfacet
  facet normal 0 0 1
    outer loop
      vertex 5.5 36 1
      vertex 36 38 1
      vertex 5.5 38 1
    endloop
  endfacet
  facet normal 0 0 1
    outer loop
      vertex 0.300049 0.300003 1
      vertex 36 5.5 1
      vertex 5.5 36 1
    endloop
  endfacet
  facet normal 0 0 1
    outer loop
      vertex 0.300049 0.300003 1
      vertex 5.5 36 1
      vertex 0.300049 36 1
    endloop
  endfacet
  facet normal 0 0 1
    outer loop
      vertex 36 5.5 1
      vertex 0.300049 0.300003 1
      vertex 36 0.300003 1
    endloop
  endfacet
  facet normal -0 0 1
    outer loop
      vertex 0.300049 -0.300003 1
      vertex 36 -5.5 1
      vertex 36 -0.300003 1
    endloop
  endfacet
  facet normal 0 0 1
    outer loop
      vertex 36 -5.5 1
      vertex 5.5 -36 1
      vertex 36 -38 1
    endloop
  endfacet
  facet normal 0 0 1
    outer loop
      vertex 36 -5.5 1
      vertex 0.300049 -0.300003 1
      vertex 5.5 -36 1
    endloop
  endfacet
  facet normal 0 0 1
    outer loop
      vertex 5.5 -36 1
      vertex 0.300049 -0.300003 1
      vertex 0.300049 -36 1
    endloop
  endfacet
  facet normal -0 0 1
    outer loop
      vertex 36 -5.5 1
      vertex 38 -36 1
      vertex 38 -5.5 1
    endloop
  endfacet
  facet normal 0 0 1
    outer loop
      vertex 38 -36 1
      vertex 36 -5.5 1
      vertex 36 -38 1
    endloop
  endfacet
  facet normal 0 0 1
    outer loop
      vertex 36 -38 1
      vertex 5.5 -36 1
      vertex 5.5 -38 1
    endloop
  endfacet
  facet normal 0 0 -1
    outer loop
      vertex -5 36.5 1.5
      vertex 5 37.5 1.5
      vertex 5 36.5 1.5
    endloop
  endfacet
  facet normal -0 0 -1
    outer loop
      vertex 5 37.5 1.5
      vertex -5 36.5 1.5
      vertex -5 37.5 1.5
    endloop
  endfacet
  facet normal 0 0 -1
    outer loop
      vertex -37.5 -5 1.5
      vertex -36.5 5 1.5
      vertex -36.5 -5 1.5
    endloop
  endfacet
  facet normal -0 0 -1
    outer loop
      vertex -36.5 5 1.5
      vertex -37.5 -5 1.5
      vertex -37.5 5 1.5
    endloop
  endfacet
  facet normal 0 0 -1
    outer loop
      vertex 36.5 -5 1.5
      vertex 37.5 5 1.5
      vertex 37.5 -5 1.5
    endloop
  endfacet
  facet normal -0 0 -1
    outer loop
      vertex 37.5 5 1.5
      vertex 36.5 -5 1.5
      vertex 36.5 5 1.5
    endloop
  endfacet
  facet normal 0 0 -1
    outer loop
      vertex -5 -37.5 1.5
      vertex 5 -36.5 1.5
      vertex 5 -37.5 1.5
    endloop
  endfacet
  facet normal -0 0 -1
    outer loop
      vertex 5 -36.5 1.5
      vertex -5 -37.5 1.5
      vertex -5 -36.5 1.5
    endloop
  endfacet
  facet normal 0 -1 0
    outer loop
      vertex -5 37.5 0
      vertex 5 37.5 1.5
      vertex -5 37.5 1.5
    endloop
  endfacet
  facet normal 0 -1 -0
    outer loop
      vertex 5 37.5 1.5
      vertex -5 37.5 0
      vertex 5 37.5 0
    endloop
  endfacet
  facet normal 1 -0 0
    outer loop
      vertex -5 36.5 1.5
      vertex -5 37.5 0
      vertex -5 37.5 1.5
    endloop
  endfacet
  facet normal 1 0 0
    outer loop
      vertex -5 37.5 0
      vertex -5 36.5 1.5
      vertex -5 36.5 0
    endloop
  endfacet
  facet normal 0 1 -0
    outer loop
      vertex 5 36.5 0
      vertex -5 36.5 1.5
      vertex 5 36.5 1.5
    endloop
  endfacet
  facet normal 0 1 0
    outer loop
      vertex -5 36.5 1.5
      vertex 5 36.5 0
      vertex -5 36.5 0
    endloop
  endfacet
  facet normal -1 0 0
    outer loop
      vertex 5 36.5 0
      vertex 5 37.5 1.5
      vertex 5 37.5 0
    endloop
  endfacet
  facet normal -1 -0 0
    outer loop
      vertex 5 37.5 1.5
      vertex 5 36.5 0
      vertex 5 36.5 1.5
    endloop
  endfacet
  facet normal 0 -1 0
    outer loop
      vertex -37.5 5 0
      vertex -36.5 5 1.5
      vertex -37.5 5 1.5
    endloop
  endfacet
  facet normal 0 -1 -0
    outer loop
      vertex -36.5 5 1.5
      vertex -37.5 5 0
      vertex -36.5 5 0
    endloop
  endfacet
  facet normal 1 -0 0
    outer loop
      vertex -37.5 -5 1.5
      vertex -37.5 5 0
      vertex -37.5 5 1.5
    endloop
  endfacet
  facet normal 1 0 0
    outer loop
      vertex -37.5 5 0
      vertex -37.5 -5 1.5
      vertex -37.5 -5 0
    endloop
  endfacet
  facet normal 0 1 -0
    outer loop
      vertex -36.5 -5 0
      vertex -37.5 -5 1.5
      vertex -36.5 -5 1.5
    endloop
  endfacet
  facet normal 0 1 0
    outer loop
      vertex -37.5 -5 1.5
      vertex -36.5 -5 0
      vertex -37.5 -5 0
    endloop
  endfacet
  facet normal -1 0 0
    outer loop
      vertex -36.5 -5 0
      vertex -36.5 5 1.5
      vertex -36.5 5 0
    endloop
  endfacet
  facet normal -1 -0 0
    outer loop
      vertex -36.5 5 1.5
      vertex -36.5 -5 0
      vertex -36.5 -5 1.5
    endloop
  endfacet
  facet normal 0 -1 0
    outer loop
      vertex 36.5 5 0
      vertex 37.5 5 1.5
      vertex 36.5 5 1.5
    endloop
  endfacet
  facet normal 0 -1 -0
    outer loop
      vertex 37.5 5 1.5
      vertex 36.5 5 0
      vertex 37.5 5 0
    endloop
  endfacet
  facet normal 1 -0 0
    outer loop
      vertex 36.5 -5 1.5
      vertex 36.5 5 0
      vertex 36.5 5 1.5
    endloop
  endfacet
  facet normal 1 0 0
    outer loop
      vertex 36.5 5 0
      vertex 36.5 -5 1.5
      vertex 36.5 -5 0
    endloop
  endfacet
  facet normal 0 1 -0
    outer loop
      vertex 37.5 -5 0
      vertex 36.5 -5 1.5
      vertex 37.5 -5 1.5
    endloop
  endfacet
  facet normal 0 1 0
    outer loop
      vertex 36.5 -5 1.5
      vertex 37.5 -5 0
      vertex 36.5 -5 0
    endloop
  endfacet
  facet normal -1 0 0
    outer loop
      vertex 37.5 -5 0
      vertex 37.5 5 1.5
      vertex 37.5 5 0
    endloop
  endfacet
  facet normal -1 -0 0
    outer loop
      vertex 37.5 5 1.5
      vertex 37.5 -5 0
      vertex 37.5 -5 1.5
    endloop
  endfacet
  facet normal 0 -1 0
    outer loop
      vertex -5 -36.5 0
      vertex 5 -36.5 1.5
      vertex -5 -36.5 1.5
    endloop
  endfacet
  facet normal 0 -1 -0
    outer loop
      vertex 5 -36.5 1.5
      vertex -5 -36.5 0
      vertex 5 -36.5 0
    endloop
  endfacet
  facet normal 1 -0 0
    outer loop
      vertex -5 -37.5 1.5
      vertex -5 -36.5 0
      vertex -5 -36.5 1.5
    endloop
  endfacet
  facet normal 1 0 0
    outer loop
      vertex -5 -36.5 0
      vertex -5 -37.5 1.5
      vertex -5 -37.5 0
    endloop
  endfacet
  facet normal 0 1 -0
    outer loop
      vertex 5 -37.5 0
      vertex -5 -37.5 1.5
      vertex 5 -37.5 1.5
    endloop
  endfacet
  facet normal 0 1 0
    outer loop
      vertex -5 -37.5 1.5
      vertex 5 -37.5 0
      vertex -5 -37.5 0
    endloop
  endfacet
  facet normal -1 0 0
    outer loop
      vertex 5 -37.5 0
      vertex 5 -36.5 1.5
      vertex 5 -36.5 0
    endloop
  endfacet
  facet normal -1 -0 0
    outer loop
      vertex 5 -36.5 1.5
      vertex 5 -37.5 0
      vertex 5 -37.5 1.5
    endloop
  endfacet
endsolid OpenSCAD_Model
