<?xml version="1.0" encoding="UTF-8" standalone="no"?>
<!DOCTYPE svg PUBLIC "-//W3C//DTD SVG 1.1//EN" "http://www.w3.org/Graphics/SVG/1.1/DTD/svg11.dtd">
<svg width="100%" height="100%" viewBox="0 0 341 341" version="1.1" xmlns="http://www.w3.org/2000/svg" xmlns:xlink="http://www.w3.org/1999/xlink" xml:space="preserve" xmlns:serif="http://www.serif.com/" style="fill-rule:evenodd;clip-rule:evenodd;stroke-miterlimit:1.5;">
    <g transform="matrix(1,0,0,1,354.331,169.91)">
        <g transform="matrix(-1.22465e-22,-2e-06,-0.479771,2.93775e-17,-14.1735,-169.909)">
            <rect x="263" y="0" width="20" height="709" style="fill:none;stroke:black;stroke-width:5.9px;"/>
        </g>
        <g transform="matrix(2e-06,-2.44929e-22,-5.8755e-17,-0.479771,-14.1741,170.248)">
            <rect x="263" y="0" width="20" height="709" style="fill:none;stroke:black;stroke-width:5.9px;"/>
        </g>
        <g transform="matrix(2e-06,-2.44929e-22,-5.8755e-17,-0.479771,-354.332,170.248)">
            <rect x="263" y="0" width="20" height="709" style="fill:none;stroke:black;stroke-width:5.9px;"/>
        </g>
        <g transform="matrix(-1.22465e-22,-2e-06,-0.479771,2.93775e-17,-14.1735,170.248)">
            <rect x="263" y="0" width="20" height="709" style="fill:none;stroke:black;stroke-width:5.9px;"/>
        </g>
        <g transform="matrix(1.41421e-06,4.20918e-22,-1.99293e-16,-0.119943,-297.638,170.248)">
            <rect x="263" y="0" width="20" height="709" style="fill:none;stroke:black;stroke-width:23.58px;"/>
        </g>
        <g transform="matrix(1.41421e-06,4.20918e-22,-1.99293e-16,-0.119943,-297.639,-84.8704)">
            <rect x="263" y="0" width="20" height="709" style="fill:none;stroke:black;stroke-width:23.58px;"/>
        </g>
        <g transform="matrix(1.41421e-06,4.20918e-22,-1.99293e-16,-0.119943,-240.946,170.248)">
            <rect x="263" y="0" width="20" height="709" style="fill:none;stroke:black;stroke-width:23.58px;"/>
        </g>
        <g transform="matrix(1.41421e-06,4.20918e-22,-1.99293e-16,-0.119943,-240.946,-84.8704)">
            <rect x="263" y="0" width="20" height="709" style="fill:none;stroke:black;stroke-width:23.58px;"/>
        </g>
        <g transform="matrix(1.41421e-06,4.20918e-22,-1.99293e-16,-0.119943,-184.253,170.248)">
            <rect x="263" y="0" width="20" height="709" style="fill:none;stroke:black;stroke-width:23.58px;"/>
        </g>
        <g transform="matrix(1.41421e-06,4.20918e-22,-1.99293e-16,-0.119943,-184.253,-84.8704)">
            <rect x="263" y="0" width="20" height="709" style="fill:none;stroke:black;stroke-width:23.58px;"/>
        </g>
        <g transform="matrix(1.41421e-06,4.20918e-22,-1.99293e-16,-0.119943,-127.56,170.248)">
            <rect x="263" y="0" width="20" height="709" style="fill:none;stroke:black;stroke-width:23.58px;"/>
        </g>
        <g transform="matrix(1.41421e-06,4.20918e-22,-1.99293e-16,-0.119943,-127.56,-84.8704)">
            <rect x="263" y="0" width="20" height="709" style="fill:none;stroke:black;stroke-width:23.58px;"/>
        </g>
        <g transform="matrix(1.41421e-06,4.20918e-22,-1.99293e-16,-0.119943,-70.8668,170.248)">
            <rect x="263" y="0" width="20" height="709" style="fill:none;stroke:black;stroke-width:23.58px;"/>
        </g>
        <g transform="matrix(1.41421e-06,4.20918e-22,-1.99293e-16,-0.119943,-70.8669,-84.8704)">
            <rect x="263" y="0" width="20" height="709" style="fill:none;stroke:black;stroke-width:23.58px;"/>
        </g>
    </g>
</svg>
