<?xml version="1.0" encoding="UTF-8" standalone="no"?>
<!DOCTYPE svg PUBLIC "-//W3C//DTD SVG 1.1//EN" "http://www.w3.org/Graphics/SVG/1.1/DTD/svg11.dtd">
<svg width="100%" height="100%" viewBox="0 0 341 341" version="1.1" xmlns="http://www.w3.org/2000/svg" xmlns:xlink="http://www.w3.org/1999/xlink" xml:space="preserve" xmlns:serif="http://www.serif.com/" style="fill-rule:evenodd;clip-rule:evenodd;stroke-miterlimit:1.5;">
    <g transform="matrix(1,0,0,1,354.331,169.91)">
        <g transform="matrix(-1.22465e-22,-2e-06,-0.479771,2.93775e-17,-14.1735,-169.909)">
            <rect x="263" y="0" width="20" height="709" style="fill:none;stroke:black;stroke-width:5.9px;"/>
        </g>
        <g transform="matrix(2e-06,-2.44929e-22,-5.8755e-17,-0.479771,-14.1741,170.248)">
            <rect x="263" y="0" width="20" height="709" style="fill:none;stroke:black;stroke-width:5.9px;"/>
        </g>
        <g transform="matrix(2e-06,-2.44929e-22,-5.8755e-17,-0.479771,-354.332,170.248)">
            <rect x="263" y="0" width="20" height="709" style="fill:none;stroke:black;stroke-width:5.9px;"/>
        </g>
        <g transform="matrix(-1.22465e-22,-2e-06,-0.479771,2.93775e-17,-14.1735,170.248)">
            <rect x="263" y="0" width="20" height="709" style="fill:none;stroke:black;stroke-width:5.9px;"/>
        </g>
        <g transform="matrix(1.41421e-06,-7.20011e-22,4.56946e-18,-0.479771,-269.292,170.248)">
            <rect x="263" y="0" width="20" height="709" style="fill:none;stroke:black;stroke-width:5.9px;"/>
        </g>
        <g transform="matrix(1.41421e-06,-7.20011e-22,4.56946e-18,-0.479771,-311.812,170.248)">
            <rect x="263" y="0" width="20" height="709" style="fill:none;stroke:black;stroke-width:5.9px;"/>
        </g>
        <g transform="matrix(1.41421e-06,-7.20011e-22,4.56946e-18,-0.479771,-226.772,170.248)">
            <rect x="263" y="0" width="20" height="709" style="fill:none;stroke:black;stroke-width:5.9px;"/>
        </g>
        <g transform="matrix(1.41421e-06,-7.20011e-22,4.56946e-18,-0.479771,-141.733,170.248)">
            <rect x="263" y="0" width="20" height="709" style="fill:none;stroke:black;stroke-width:5.9px;"/>
        </g>
        <g transform="matrix(1.41421e-06,-7.20011e-22,4.56946e-18,-0.479771,-56.6937,170.248)">
            <rect x="263" y="0" width="20" height="709" style="fill:none;stroke:black;stroke-width:5.9px;"/>
        </g>
        <g transform="matrix(1.41421e-06,-7.20011e-22,4.56946e-18,-0.479771,-184.253,170.248)">
            <rect x="263" y="0" width="20" height="709" style="fill:none;stroke:black;stroke-width:5.9px;"/>
        </g>
        <g transform="matrix(1.41421e-06,-7.20011e-22,4.56946e-18,-0.479771,-99.2134,170.248)">
            <rect x="263" y="0" width="20" height="709" style="fill:none;stroke:black;stroke-width:5.9px;"/>
        </g>
        <g transform="matrix(1.7857e-22,1.41421e-06,0.479771,1.88253e-16,-354.331,-56.5243)">
            <rect x="263" y="0" width="20" height="709" style="fill:none;stroke:black;stroke-width:5.9px;"/>
        </g>
        <g transform="matrix(1.7857e-22,1.41421e-06,0.479771,1.88253e-16,-354.331,56.8615)">
            <rect x="263" y="0" width="20" height="709" style="fill:none;stroke:black;stroke-width:5.9px;"/>
        </g>
    </g>
</svg>
