<?xml version="1.0" encoding="UTF-8" standalone="no"?>
<!DOCTYPE svg PUBLIC "-//W3C//DTD SVG 1.1//EN" "http://www.w3.org/Graphics/SVG/1.1/DTD/svg11.dtd">
<svg width="100%" height="100%" viewBox="0 0 341 341" version="1.1" xmlns="http://www.w3.org/2000/svg" xmlns:xlink="http://www.w3.org/1999/xlink" xml:space="preserve" xmlns:serif="http://www.serif.com/" style="fill-rule:evenodd;clip-rule:evenodd;stroke-miterlimit:1.5;">
    <g transform="matrix(1,0,0,1,354.331,169.91)">
        <g transform="matrix(-1.22465e-22,-2e-06,-0.479771,2.93775e-17,-14.1735,-169.909)">
            <rect x="263" y="0" width="20" height="709" style="fill:none;stroke:black;stroke-width:5.9px;"/>
        </g>
        <g transform="matrix(2e-06,-2.44929e-22,-5.8755e-17,-0.479771,-14.1741,170.248)">
            <rect x="263" y="0" width="20" height="709" style="fill:none;stroke:black;stroke-width:5.9px;"/>
        </g>
        <g transform="matrix(2e-06,-2.44929e-22,-5.8755e-17,-0.479771,-354.332,170.248)">
            <rect x="263" y="0" width="20" height="709" style="fill:none;stroke:black;stroke-width:5.9px;"/>
        </g>
        <g transform="matrix(-1.22465e-22,-2e-06,-0.479771,2.93775e-17,-14.1735,170.248)">
            <rect x="263" y="0" width="20" height="709" style="fill:none;stroke:black;stroke-width:5.9px;"/>
        </g>
        <g transform="matrix(-2.68032e-22,1.41421e-06,0.239886,-1.7266e-16,-269.292,85.2079)">
            <rect x="263" y="0" width="20" height="709" style="fill:none;stroke:black;stroke-width:11.79px;"/>
        </g>
        <g transform="matrix(-2.68032e-22,1.41421e-06,0.239886,-1.7266e-16,-269.292,-84.8708)">
            <rect x="263" y="0" width="20" height="709" style="fill:none;stroke:black;stroke-width:11.79px;"/>
        </g>
        <g transform="matrix(-1.41421e-06,-2.47727e-22,2.13981e-16,0.119943,-184.252,-169.91)">
            <rect x="263" y="0" width="20" height="709" style="fill:none;stroke:black;stroke-width:23.58px;"/>
        </g>
        <g transform="matrix(-1.41421e-06,-2.47727e-22,2.13981e-16,0.119943,-184.252,85.2083)">
            <rect x="263" y="0" width="20" height="709" style="fill:none;stroke:black;stroke-width:23.58px;"/>
        </g>
        <g transform="matrix(-1.41421e-06,-1.81436e-22,1.87349e-16,0.239886,-269.291,-84.8705)">
            <rect x="263" y="0" width="20" height="709" style="fill:none;stroke:black;stroke-width:11.79px;"/>
        </g>
        <g transform="matrix(-1.41421e-06,-1.81436e-22,1.87349e-16,0.239886,-99.2125,-84.8705)">
            <rect x="263" y="0" width="20" height="709" style="fill:none;stroke:black;stroke-width:11.79px;"/>
        </g>
        <g transform="matrix(1.61132e-22,-1.41421e-06,-0.119943,2.21326e-16,-14.1736,0.169357)">
            <rect x="263" y="0" width="20" height="709" style="fill:none;stroke:black;stroke-width:23.58px;"/>
        </g>
        <g transform="matrix(1.61132e-22,-1.41421e-06,-0.119943,2.21326e-16,-269.292,0.169425)">
            <rect x="263" y="0" width="20" height="709" style="fill:none;stroke:black;stroke-width:23.58px;"/>
        </g>
    </g>
</svg>
