<?xml version="1.0" encoding="UTF-8" standalone="no"?>
<!DOCTYPE svg PUBLIC "-//W3C//DTD SVG 1.1//EN" "http://www.w3.org/Graphics/SVG/1.1/DTD/svg11.dtd">
<svg width="100%" height="100%" viewBox="0 0 341 341" version="1.1" xmlns="http://www.w3.org/2000/svg" xmlns:xlink="http://www.w3.org/1999/xlink" xml:space="preserve" xmlns:serif="http://www.serif.com/" style="fill-rule:evenodd;clip-rule:evenodd;stroke-miterlimit:1.5;">
    <g transform="matrix(1,0,0,1,354.331,169.91)">
        <g transform="matrix(-1.22465e-22,-2e-06,-0.479771,2.93775e-17,-14.1735,-169.909)">
            <rect x="263" y="0" width="20" height="709" style="fill:none;stroke:black;stroke-width:5.9px;"/>
        </g>
        <g transform="matrix(2e-06,-2.44929e-22,-5.8755e-17,-0.479771,-14.1741,170.248)">
            <rect x="263" y="0" width="20" height="709" style="fill:none;stroke:black;stroke-width:5.9px;"/>
        </g>
        <g transform="matrix(2e-06,-2.44929e-22,-5.8755e-17,-0.479771,-354.332,170.248)">
            <rect x="263" y="0" width="20" height="709" style="fill:none;stroke:black;stroke-width:5.9px;"/>
        </g>
        <g transform="matrix(-1.22465e-22,-2e-06,-0.479771,2.93775e-17,-14.1735,170.248)">
            <rect x="263" y="0" width="20" height="709" style="fill:none;stroke:black;stroke-width:5.9px;"/>
        </g>
        <g transform="matrix(1e-06,-1e-06,-0.239885,-0.239885,-184.253,170.248)">
            <rect x="263" y="0" width="20" height="709" style="fill:none;stroke:black;stroke-width:8.34px;"/>
        </g>
        <g transform="matrix(1e-06,-1e-06,-0.239885,-0.239885,-14.1738,0.169248)">
            <rect x="263" y="0" width="20" height="709" style="fill:none;stroke:black;stroke-width:8.34px;"/>
        </g>
        <g transform="matrix(1e-06,1e-06,0.239885,-0.239885,-354.331,0.168702)">
            <rect x="263" y="0" width="20" height="709" style="fill:none;stroke:black;stroke-width:8.34px;"/>
        </g>
        <g transform="matrix(1e-06,1e-06,0.239885,-0.239885,-184.253,170.247)">
            <rect x="263" y="0" width="20" height="709" style="fill:none;stroke:black;stroke-width:8.34px;"/>
        </g>
        <g transform="matrix(1.41421e-06,2.22045e-22,-7.53284e-17,-0.479771,-184.253,170.248)">
            <rect x="263" y="0" width="20" height="709" style="fill:none;stroke:black;stroke-width:5.9px;"/>
        </g>
        <g transform="matrix(-1.35449e-22,1.41421e-06,0.479771,-1.04706e-16,-354.331,0.16886)">
            <rect x="263" y="0" width="20" height="709" style="fill:none;stroke:black;stroke-width:5.9px;"/>
        </g>
    </g>
</svg>
